<?xml version="1.0" encoding="utf-8"?>
<!-- Generator: Adobe Illustrator 27.0.1, SVG Export Plug-In . SVG Version: 6.00 Build 0)  -->
<svg version="1.1" id="Capa_1" xmlns="http://www.w3.org/2000/svg" xmlns:xlink="http://www.w3.org/1999/xlink" x="0px" y="0px"
	 viewBox="0 0 1080 1080" style="enable-background:new 0 0 1080 1080;" xml:space="preserve">
<style type="text/css">
	.st0{fill:#FFD520;}
</style>
<g>
	<path class="st0" d="M1006,508.18c-3.13,6.8-5.58,14.02-11.47,19.15c-11.23,9.77-24.04,12.8-37.98,7.35
		c-13.88-5.43-21.5-16.19-23.09-31.03c-0.35-3.3-0.2-6.66-0.2-9.99c-0.01-65.45,0.07-130.91-0.04-196.36
		c-0.06-36.85-20.84-65.26-55.04-73.95c-20.18-5.13-41.05-1.8-61.6-2.5c-4.72-0.16-3.29,3.39-3.32,5.75c-0.12,10,0.12,20-0.1,30
		c-0.49,21.36-16.37,37.2-36.79,36.94c-20.03-0.25-35.38-15.96-35.85-36.97c-0.22-9.69-0.28-19.4,0.05-29.09
		c0.16-4.78-0.66-6.8-6.21-6.77c-51.21,0.23-102.43,0.22-153.64,0.01c-5.09-0.02-5.95,1.78-5.83,6.22c0.27,9.99,0.28,20,0.02,30
		c-0.54,20.91-16.13,36.54-36.21,36.6c-20.06,0.05-35.82-15.57-36.4-36.41c-0.28-9.99-0.18-20-0.02-30c0.07-4.1-0.14-6.46-5.61-6.43
		c-50.91,0.24-101.82,0.2-152.73,0.05c-4.47-0.01-5.62,1.36-5.49,5.63c0.29,9.69,0.21,19.39,0.07,29.09
		c-0.32,22.13-15.84,38.21-36.6,38.07c-20.41-0.14-35.72-16.03-36.09-37.66c-0.17-10,0-20-0.06-30c-0.01-2.23,0.92-5.19-3.15-5.04
		c-20.23,0.77-40.78-2.65-60.64,2.74c-32.5,8.83-52.76,35.13-54.33,68.98c-0.06,1.21-0.07,2.42-0.07,3.64
		c0,187.27-0.06,374.55,0.04,561.82c0.02,36.09,20.23,63.05,53.98,72.96c8.2,2.41,16.67,2.8,25.18,2.8
		c89.09-0.03,178.18,0.05,267.28-0.09c12.1-0.02,22.84,2.78,31.19,11.86c16.95,18.4,10.8,47.48-12.08,57.74
		c-2.43,1.09-4.87,2.15-7.31,3.22c-101.24,0-202.48,0-303.72,0c-43.47-3.32-76.15-25.4-101.76-59.22
		c-17.95-23.71-26.49-50.65-26.48-80.49c0.09-193.02,0.44-386.05-0.17-579.07c-0.21-66.1,50.57-117.7,96.61-133.52
		c24.33-8.36,49.2-9.27,74.45-8.85c19.43,0.32,18.28,1.45,18.32-18.11c0.01-6.06-0.29-12.13,0.27-18.17
		c1.96-21.1,15.97-34.16,37-34.6c25.37-0.52,40.07,13.6,40.77,39.23c0.19,6.97-0.04,13.94,0.08,20.91
		c0.18,9.89,0.96,10.75,11.12,10.78c38.18,0.09,76.36,0.03,114.54,0.03c7.58,0,15.17-0.29,22.72,0.07
		c7.6,0.36,10.31-3.01,9.98-10.28c-0.32-6.95-0.17-13.94-0.02-20.9c0.56-25.57,14.72-39.91,39.29-39.83
		c24,0.07,38.13,14.46,38.72,39.49c0.16,6.97-0.04,13.94,0.07,20.91c0.15,9.67,0.85,10.47,10.33,10.52c20,0.1,40,0.03,60,0.03
		c26.06,0,52.12,0.05,78.18-0.02c10.79-0.03,11.44-0.72,11.6-11.19c0.11-7.57-0.24-15.16,0.15-22.72
		c1.21-23.36,15.85-37.11,39.28-37.02c22.87,0.09,37.3,13.81,38.53,36.83c0.45,8.47,0.23,16.97,0.13,25.45
		c-0.07,6.19,2.7,8.72,8.77,8.68c10.91-0.08,21.82-0.12,32.73,0.01c61.79,0.75,106.68,29.36,136.18,83.01
		c8.31,15.12,10.86,31.86,12.45,48.77C1006,354.2,1006,431.19,1006,508.18z"/>
	<path class="st0" d="M338.49,457.3c-0.02,19.9-16.46,36.3-36.37,36.28c-19.9-0.02-36.3-16.46-36.28-36.36
		c0.02-19.9,16.46-36.3,36.37-36.28C322.12,420.96,338.52,437.4,338.49,457.3z"/>
	<path class="st0" d="M460.48,493.58c-19.9,0.05-36.36-16.34-36.4-36.24c-0.05-19.9,16.34-36.36,36.24-36.4
		c19.9-0.05,36.36,16.34,36.4,36.24C496.76,477.08,480.38,493.54,460.48,493.58z"/>
	<path class="st0" d="M618.39,420.94c19.9-0.12,36.43,16.2,36.55,36.1c0.12,19.9-16.2,36.42-36.1,36.55
		c-19.9,0.12-36.42-16.2-36.55-36.1C582.18,437.58,598.5,421.06,618.39,420.94z"/>
	<path class="st0" d="M813.17,457.18c0.04,19.9-16.35,36.35-36.25,36.4c-19.9,0.04-36.36-16.35-36.4-36.25
		c-0.04-19.9,16.35-36.35,36.25-36.4C796.67,420.9,813.13,437.28,813.17,457.18z"/>
	<path class="st0" d="M338.49,615.69c-0.11,19.9-16.62,36.23-36.53,36.11c-19.91-0.11-36.23-16.62-36.11-36.53
		c0.11-19.91,16.62-36.23,36.53-36.11C322.28,579.27,338.61,595.79,338.49,615.69z"/>
	<path class="st0" d="M460.78,651.8c-19.91,0.21-36.5-16.04-36.7-35.94c-0.21-19.91,16.04-36.5,35.94-36.7
		c19.91-0.21,36.5,16.04,36.7,35.94C496.92,635.01,480.68,651.6,460.78,651.8z"/>
	<path class="st0" d="M338.49,773.84c-0.07,19.9-16.56,36.26-36.46,36.19c-19.9-0.07-36.26-16.56-36.19-36.46
		c0.07-19.9,16.56-36.26,36.46-36.19C322.2,737.46,338.57,753.94,338.49,773.84z"/>
	<path class="st0" d="M496.72,773.93c-0.12,19.9-16.65,36.22-36.55,36.1c-19.9-0.12-36.22-16.65-36.1-36.55
		c0.12-19.9,16.65-36.22,36.55-36.1C480.52,737.51,496.84,754.03,496.72,773.93z"/>
	<path class="st0" d="M1004.1,758.33c-2.95-21.38-8.23-42.15-17.54-61.67c-33.94-71.15-89.41-115.03-167.5-127.16
		c-74.5-11.58-139.33,10.81-191.47,65.02c-50.62,52.63-69.08,116.25-58.38,188.71c11.76,79.7,77.68,153.8,155.81,174.62
		c11.78,3.14,24.23,3.43,35.46,8.64c3.03,0,6.06,0,9.09,0c1.21-1.14,2.42-1.14,3.64,0c8.49,0,16.97,0,25.46,0
		c1.21-1.14,2.42-1.14,3.64,0c1.82,0,3.64,0,5.46,0c7.62-1.92,15.58-0.95,23.21-2.61c62.12-13.51,110.09-47.39,143.97-101.01
		c17.54-27.76,28.11-58.13,31.05-90.98c0-3.03,0-6.06,0-9.09c-2.46-1.21-2.09-2.42,0-3.64c0-8.49,0-16.97,0-25.46
		c-2.09-1.21-2.46-2.42,0-3.64c0-2.42,0-4.85,0-7.27C1003.48,762.12,1004.32,759.94,1004.1,758.33z M785.48,933.72
		c-80.77-0.3-146.68-66.32-146.82-147.07c-0.15-81.05,66.22-147.51,147.3-147.5c81.08,0.01,147.44,66.47,147.28,147.52
		C933.07,867.78,866.5,934.03,785.48,933.72z"/>
	<path class="st0" d="M749.58,748.84c0-12.12-0.21-24.25,0.05-36.37c0.45-21.35,16.38-37.19,36.8-36.93
		c20.03,0.26,35.34,15.98,35.84,36.99c0.19,8.18,0.04,16.36,0.05,24.55c0,12.9,0,12.88,12.51,12.98c4.23,0.03,8.42,0.09,12.61,1.21
		c17.42,4.69,28.78,20.21,27.47,37.83c-1.33,17.88-15.5,32.66-33.64,33.36c-19.36,0.75-38.81,0.81-58.16-0.04
		c-18.83-0.82-32.82-16.19-33.41-35.42c-0.39-12.72-0.07-25.45-0.07-38.18C749.6,748.84,749.59,748.84,749.58,748.84z"/>
</g>
<rect x="-365" y="367.42" class="st0" width="183.8" height="18.91"/>
</svg>
