<?xml version="1.0" encoding="utf-8"?>
<!-- Generator: Adobe Illustrator 27.0.1, SVG Export Plug-In . SVG Version: 6.00 Build 0)  -->
<svg version="1.1" id="Capa_1" xmlns="http://www.w3.org/2000/svg" xmlns:xlink="http://www.w3.org/1999/xlink" x="0px" y="0px"
	 viewBox="0 0 157 161" style="enable-background:new 0 0 157 161;" xml:space="preserve">
<style type="text/css">
	.st0{fill:#fff;}
</style>
<path class="st0" d="M150,38.03c-0.59,3.37-2.64,5.81-4.99,8.15c-22.23,22.18-44.43,44.4-66.64,66.62
	c-3.33,3.34-7.23,4.73-11.77,3.11c-1.63-0.58-3.21-1.65-4.45-2.87c-7.38-7.23-14.68-14.55-21.94-21.89
	c-5.64-5.71-4.27-14.26,2.76-17.73c4.05-2,8.91-1.05,12.5,2.5c4.5,4.46,8.97,8.95,13.44,13.44c0.35,0.35,0.62,0.8,1.01,1.31
	c0.59-0.57,0.98-0.93,1.36-1.3c19.87-19.87,39.74-39.75,59.6-59.63c3.24-3.25,7-4.66,11.51-3.27c3.86,1.2,6.21,3.9,7.29,7.76
	c0.1,0.35,0.21,0.7,0.31,1.05C150,36.19,150,37.11,150,38.03z"/>
<path class="st0" d="M104.29,37.75c-0.53,0.56-0.83,0.9-1.14,1.21c-3.93,3.93-7.87,7.84-11.76,11.8c-0.73,0.74-1.45,1.06-2.5,1.06
	c-21.35-0.03-42.7-0.02-64.05-0.02c-0.55,0-1.1,0-1.75,0c0,28.54,0,57.02,0,85.58c28.45,0,56.89,0,85.56,0c0-0.52,0-1.04,0-1.57
	c0-10.88,0.03-21.76-0.04-32.64c-0.01-1.5,0.38-2.55,1.46-3.59c3.86-3.74,7.62-7.57,11.42-11.37c0.31-0.31,0.65-0.6,1.21-1.12
	c0,0.72,0,1.16,0,1.59c0,18.27,0,36.54,0,54.82c0,5.19-2.82,8.04-7.98,8.04c-32.6,0-65.19,0-97.79,0c-5.2,0-8-2.8-8-8
	c0-32.6,0-65.19,0-97.79c0-5.2,2.8-8,7.99-8c28.56,0,57.11,0,85.67,0C103.05,37.75,103.51,37.75,104.29,37.75z"/>
<rect x="-373.44" y="0.12" class="st0" width="144.66" height="26.16"/>
</svg>
