<?xml version="1.0" encoding="utf-8"?>
<!-- Generator: Adobe Illustrator 27.5.0, SVG Export Plug-In . SVG Version: 6.00 Build 0)  -->
<svg version="1.1" id="Capa_1" xmlns="http://www.w3.org/2000/svg" xmlns:xlink="http://www.w3.org/1999/xlink" x="0px" y="0px"
	 viewBox="0 0 610 624" style="enable-background:new 0 0 610 624;" xml:space="preserve">
<style type="text/css">
	.st0{fill:#FFFFFF;stroke:#FFFFFF;stroke-width:37;stroke-miterlimit:10;}
	.st1{fill:#FFFFFF;}
	.st2{fill:none;stroke:#FFFFFF;stroke-width:37;stroke-miterlimit:10;}
	.st3{fill:#FFE679;}
	.st4{fill:#B01333;}
	.st5{fill:#231F1F;}
	.st6{fill:none;stroke:#B01333;stroke-width:6.6483;stroke-miterlimit:10;}
</style>
<g>
	<path class="st0" d="M330.35,586.21c-17.29-1.93-99.65-64.05-133.94-137.96c-30.91-68.94-21.4-132.68-17.34-166.5
		c0,0,18.11-150.14,26.19-217.11c97.89-10.08,187.78,1.89,187.78,1.89s90.16,9.76,182.84,42.82
		c-8.08,66.97-26.19,217.11-26.19,217.11c-4.1,33.82-10.02,97.99-56.44,157.6C442.37,547.69,347.6,588.44,330.35,586.21z"/>
	<g>
		<g>
			<path class="st1" d="M124.4,155.45c-1.88,6.81-4.88,12.41-9.03,16.79c-4.14,4.39-9.08,7.6-14.8,9.62
				c-5.72,2.02-12.04,3.03-18.94,3.03c-9.87,0-18.4-2-25.6-5.99c-7.2-4-12.73-9.74-16.57-17.24c-3.85-7.5-5.77-16.52-5.77-27.08
				c0-10.55,1.92-19.58,5.77-27.08c3.85-7.5,9.37-13.24,16.57-17.24c7.2-3.99,15.69-5.99,25.45-5.99c6.81,0,13.07,0.96,18.79,2.88
				c5.72,1.92,10.55,4.86,14.5,8.8c3.94,3.95,6.76,9.03,8.43,15.24l-22.34,9.03c-1.38-6.12-3.63-10.31-6.73-12.58
				c-3.11-2.27-7.03-3.4-11.76-3.4c-4.64,0-8.66,1.13-12.06,3.4c-3.4,2.27-6.02,5.65-7.84,10.14c-1.83,4.49-2.74,10.09-2.74,16.79
				c0,6.61,0.84,12.18,2.52,16.72c1.68,4.54,4.22,7.94,7.62,10.21c3.4,2.27,7.62,3.4,12.65,3.4c4.73,0,8.75-1.31,12.06-3.92
				c3.3-2.61,5.55-6.63,6.73-12.06L124.4,155.45z"/>
			<path class="st1" d="M182.41,84.27c9.86,0,18.37,2,25.53,5.99c7.15,4,12.65,9.74,16.5,17.24c3.85,7.5,5.77,16.52,5.77,27.08
				c0,10.56-1.92,19.58-5.77,27.08c-3.85,7.5-9.35,13.24-16.5,17.24c-7.15,4-15.66,5.99-25.53,5.99c-9.87,0-18.4-2-25.6-5.99
				c-7.2-4-12.73-9.74-16.57-17.24c-3.85-7.5-5.77-16.52-5.77-27.08c0-10.55,1.92-19.58,5.77-27.08c3.85-7.5,9.37-13.24,16.57-17.24
				C164.01,86.27,172.54,84.27,182.41,84.27z M182.41,104.25c-4.73,0-8.73,1.13-11.99,3.4c-3.26,2.27-5.72,5.65-7.4,10.14
				c-1.68,4.49-2.52,10.09-2.52,16.79c0,6.61,0.84,12.18,2.52,16.72c1.68,4.54,4.14,7.94,7.4,10.21c3.26,2.27,7.25,3.4,11.99,3.4
				c4.74,0,8.71-1.13,11.91-3.4c3.2-2.27,5.65-5.67,7.32-10.21c1.68-4.54,2.52-10.11,2.52-16.72c0-6.71-0.84-12.3-2.52-16.79
				c-1.68-4.49-4.12-7.87-7.32-10.14C191.11,105.39,187.14,104.25,182.41,104.25z"/>
			<path class="st1" d="M335.71,85.75v97.66h-28.26l-30.33-52.83l-7.4-14.5h-0.15l0.59,18.05v49.27h-22.49V85.75h28.26l30.33,52.83
				l7.4,14.5h0.15l-0.59-18.05V85.75H335.71z"/>
			<path class="st1" d="M61.28,195.91v3.54c-2.22,0.39-3.9,0.87-5.06,1.45c-1.16,0.58-2.02,1.4-2.6,2.46s-0.87,2.48-0.87,4.26
				c0,1.64,0.19,3.41,0.58,5.31c0.38,1.9,0.94,4.04,1.66,6.39l16.91,58.96l20.74-59.39c0.29-0.91,0.58-1.88,0.87-2.89
				c0.29-1.01,0.54-2,0.76-2.96c0.22-0.96,0.36-1.81,0.43-2.53s0.11-1.4,0.11-2.02c0-2.89-0.66-5-1.99-6.32
				c-1.33-1.32-3.58-2.23-6.76-2.71v-3.54h30.35v3.54c-1.98,0.48-3.57,1.18-4.77,2.1c-1.2,0.92-2.4,2.38-3.58,4.41
				c-1.18,2.02-2.61,5.25-4.3,9.68l-29.98,80.06h-9.46l-24.35-80.56c-1.3-4.38-2.43-7.5-3.4-9.36c-0.96-1.85-2.02-3.25-3.18-4.19
				c-1.16-0.94-2.75-1.65-4.77-2.13v-3.54H61.28z"/>
			<path class="st1" d="M192.64,195.91v21.82h-7.08c-0.72-2.36-1.47-4.43-2.24-6.21c-0.77-1.78-1.57-3.28-2.38-4.48
				c-0.82-1.2-1.72-2.17-2.71-2.89c-0.99-0.72-2.16-1.22-3.5-1.48c-1.35-0.26-2.96-0.4-4.84-0.4h-22.83v37.86h15.46
				c2.12,0,3.78-0.3,4.99-0.9c1.2-0.6,2.2-1.63,3-3.07c0.79-1.44,1.55-3.71,2.28-6.79h6.79v27.75h-6.79
				c-0.67-2.89-1.42-5.07-2.24-6.54c-0.82-1.47-1.79-2.52-2.93-3.14c-1.13-0.63-2.83-0.94-5.09-0.94h-15.46v41.69h22.47
				c2.36,0,4.27-0.2,5.74-0.61c1.47-0.41,2.73-1.11,3.79-2.1c1.06-0.99,2-2.28,2.82-3.87c0.82-1.59,1.5-3.24,2.06-4.95
				c0.55-1.71,1.31-4.2,2.28-7.48h7.15l-1.37,25.36h-66.91v-3.54c2.99-0.77,4.99-1.62,6-2.56c1.01-0.94,1.67-2.28,1.99-4.01
				c0.31-1.73,0.47-4.38,0.47-7.95v-62.5c0-3.32-0.12-5.74-0.36-7.26c-0.24-1.52-0.64-2.7-1.19-3.54c-0.55-0.84-1.29-1.52-2.2-2.02
				c-0.92-0.51-2.48-1.07-4.7-1.7v-3.54H192.64z"/>
			<path class="st1" d="M232.23,251.69v24.57c0,3.47,0.13,5.99,0.4,7.55c0.26,1.57,0.66,2.75,1.19,3.54
				c0.53,0.79,1.25,1.45,2.17,1.95c0.91,0.51,2.48,1.07,4.7,1.7v3.54h-30.49v-3.54c2.99-0.77,4.99-1.62,6-2.56
				c1.01-0.94,1.67-2.28,1.99-4.01c0.31-1.73,0.47-4.38,0.47-7.95v-62.5c0-3.32-0.12-5.74-0.36-7.26c-0.24-1.52-0.64-2.7-1.19-3.54
				c-0.55-0.84-1.29-1.52-2.2-2.02c-0.92-0.51-2.48-1.07-4.7-1.7v-3.54h35.76c11.27,0,19.7,2.05,25.29,6.14
				c5.59,4.09,8.38,10.45,8.38,19.07c0,6.6-1.82,12.21-5.46,16.83c-3.64,4.62-9.09,8.24-16.37,10.84v0.58
				c2.94,1.21,5.46,2.93,7.55,5.17c2.1,2.24,4.42,5.72,6.97,10.44l6.5,11.85c1.88,3.47,3.49,6.12,4.84,7.95
				c1.35,1.83,2.72,3.23,4.12,4.19c1.4,0.96,3.25,1.64,5.56,2.02v3.54h-20.01c-1.83-2.55-3.56-5.3-5.2-8.24
				c-1.64-2.94-3.25-5.93-4.84-8.96l-6.36-12.07c-1.93-3.66-3.5-6.36-4.73-8.09c-1.23-1.73-2.36-2.95-3.4-3.65
				c-1.04-0.7-2.14-1.18-3.32-1.45c-1.18-0.26-2.95-0.4-5.31-0.4H232.23z M232.23,202.56v42.92h8.16c4.19,0,7.59-0.3,10.19-0.9
				c2.6-0.6,5.01-1.74,7.23-3.43c2.22-1.69,3.99-4.03,5.31-7.04c1.32-3.01,1.99-6.71,1.99-11.09c0-4.58-0.78-8.38-2.35-11.42
				c-1.57-3.04-3.94-5.35-7.12-6.94c-3.18-1.59-7.47-2.38-12.86-2.38C238.44,202.27,234.93,202.36,232.23,202.56z"/>
			<path class="st1" d="M306.51,272.06c0.96,4.24,2.26,7.59,3.9,10.04c1.64,2.46,3.76,4.28,6.36,5.46c2.6,1.18,5.95,1.77,10.04,1.77
				c5.64,0,9.96-1.47,12.97-4.41c3.01-2.94,4.52-7.23,4.52-12.86c0-3.61-0.63-6.65-1.88-9.1c-1.25-2.46-3.3-4.77-6.14-6.94
				c-2.84-2.17-7.18-4.7-13.01-7.59c-5.64-2.79-10.09-5.53-13.37-8.2c-3.28-2.67-5.72-5.58-7.33-8.71
				c-1.61-3.13-2.42-6.55-2.42-10.26c0-5.39,1.26-10.08,3.79-14.05c2.53-3.97,6.24-7.04,11.13-9.21c4.89-2.17,10.49-3.25,16.8-3.25
				c3.66,0,7.24,0.19,10.73,0.58c3.49,0.39,7.86,1.25,13.11,2.6v19.51h-7.15c-1.11-4.24-2.51-7.54-4.19-9.9
				c-1.69-2.36-3.66-4.01-5.92-4.95c-2.26-0.94-5.2-1.41-8.81-1.41c-3.13,0-5.94,0.58-8.42,1.73c-2.48,1.16-4.44,2.9-5.89,5.24
				c-1.45,2.34-2.17,5.12-2.17,8.34c0,3.42,0.61,6.31,1.84,8.67c1.23,2.36,3.14,4.55,5.74,6.57s6.45,4.29,11.56,6.79
				c6.17,3.08,10.95,5.95,14.34,8.6c3.4,2.65,6.04,5.67,7.95,9.07c1.9,3.4,2.85,7.36,2.85,11.89c0,5.06-0.79,9.33-2.38,12.83
				c-1.59,3.49-3.79,6.33-6.61,8.53c-2.82,2.19-6.19,3.78-10.12,4.77c-3.93,0.99-8.23,1.48-12.9,1.48c-7.56,0-16.28-1.28-26.16-3.83
				v-19.8H306.51z"/>
			<path class="st1" d="M420.81,294.53v-3.54c2.41-0.48,4.2-1.01,5.38-1.59c1.18-0.58,2.06-1.38,2.64-2.42
				c0.58-1.04,0.87-2.42,0.87-4.15c0-1.64-0.19-3.41-0.58-5.31c-0.39-1.9-0.94-4.03-1.66-6.39l-2.67-9.32h-33.67l-2.46,7.08
				c-1.25,3.57-2.07,6.26-2.46,8.09c-0.39,1.83-0.58,3.49-0.58,4.98c0,2.89,0.73,5.01,2.2,6.36c1.47,1.35,3.72,2.24,6.76,2.67v3.54
				h-30.85v-3.54c2.7-0.43,5.04-2,7.04-4.7c2-2.7,3.94-6.55,5.82-11.56l30.13-79.98h11.42l24.57,80.56c1.16,3.76,2.18,6.62,3.07,8.6
				c0.89,1.98,1.96,3.52,3.22,4.62c1.25,1.11,2.96,1.93,5.13,2.46v3.54H420.81z M393.06,255.52h30.2l-13.73-46.6L393.06,255.52z"/>
			<path class="st1" d="M119.96,307.99v19.68H88.15v77.98H62.7v-77.98H30.73v-19.68H119.96z"/>
			<path class="st1" d="M174.27,306.51c9.86,0,18.37,2,25.53,5.99c7.15,3.99,12.65,9.74,16.5,17.24c3.85,7.5,5.77,16.52,5.77,27.08
				c0,10.56-1.92,19.58-5.77,27.08c-3.85,7.5-9.35,13.24-16.5,17.24c-7.15,4-15.66,5.99-25.53,5.99c-9.87,0-18.4-2-25.6-5.99
				c-7.2-4-12.73-9.74-16.57-17.24c-3.85-7.5-5.77-16.52-5.77-27.08c0-10.55,1.92-19.58,5.77-27.08c3.85-7.5,9.37-13.24,16.57-17.24
				C155.87,308.5,164.4,306.51,174.27,306.51z M174.27,326.48c-4.73,0-8.73,1.14-11.99,3.4c-3.26,2.27-5.72,5.65-7.4,10.14
				c-1.68,4.49-2.52,10.09-2.52,16.79c0,6.61,0.84,12.19,2.52,16.72c1.68,4.54,4.14,7.94,7.4,10.21c3.26,2.27,7.25,3.4,11.99,3.4
				c4.74,0,8.71-1.13,11.91-3.4c3.2-2.27,5.65-5.67,7.32-10.21c1.68-4.54,2.52-10.11,2.52-16.72c0-6.71-0.84-12.3-2.52-16.79
				c-1.68-4.49-4.12-7.87-7.32-10.14C182.97,327.62,179,326.48,174.27,326.48z"/>
			<path class="st1" d="M286.14,307.99c11.64,0,20.69,2.74,27.15,8.21c6.46,5.47,9.69,12.75,9.69,21.83
				c0,9.97-3.21,17.56-9.62,22.79c-6.41,5.23-15.44,7.84-27.08,7.84l-2.37,1.33h-19.38v35.66h-25.01v-97.66H286.14z M282.58,351.93
				c4.93,0,8.63-0.98,11.1-2.96c2.46-1.97,3.7-5.13,3.7-9.47c0-4.24-1.23-7.35-3.7-9.32c-2.47-1.97-6.17-2.96-11.1-2.96h-18.05
				v24.71H282.58z M297.53,357.26l31.22,48.39h-28.11l-25.01-42.76L297.53,357.26z"/>
			<path class="st1" d="M366.93,307.99v97.66h-25.45v-97.66H366.93z"/>
			<path class="st1" d="M432.33,306.51c9.86,0,18.37,2,25.53,5.99c7.15,3.99,12.65,9.74,16.5,17.24c3.85,7.5,5.77,16.52,5.77,27.08
				c0,10.56-1.92,19.58-5.77,27.08c-3.85,7.5-9.35,13.24-16.5,17.24c-7.15,4-15.66,5.99-25.53,5.99c-9.87,0-18.4-2-25.6-5.99
				c-7.2-4-12.73-9.74-16.57-17.24c-3.85-7.5-5.77-16.52-5.77-27.08c0-10.55,1.92-19.58,5.77-27.08c3.85-7.5,9.37-13.24,16.57-17.24
				C413.93,308.5,422.46,306.51,432.33,306.51z M432.33,326.48c-4.73,0-8.73,1.14-11.99,3.4c-3.26,2.27-5.72,5.65-7.4,10.14
				c-1.68,4.49-2.52,10.09-2.52,16.79c0,6.61,0.84,12.19,2.52,16.72c1.68,4.54,4.14,7.94,7.4,10.21c3.26,2.27,7.25,3.4,11.99,3.4
				c4.74,0,8.71-1.13,11.91-3.4c3.2-2.27,5.65-5.67,7.32-10.21c1.68-4.54,2.52-10.11,2.52-16.72c0-6.71-0.84-12.3-2.52-16.79
				c-1.68-4.49-4.12-7.87-7.32-10.14C441.04,327.62,437.07,326.48,432.33,326.48z"/>
		</g>
		<g>
			<path class="st2" d="M124.4,155.45c-1.88,6.81-4.88,12.41-9.03,16.79c-4.14,4.39-9.08,7.6-14.8,9.62
				c-5.72,2.02-12.04,3.03-18.94,3.03c-9.87,0-18.4-2-25.6-5.99c-7.2-4-12.73-9.74-16.57-17.24c-3.85-7.5-5.77-16.52-5.77-27.08
				c0-10.55,1.92-19.58,5.77-27.08c3.85-7.5,9.37-13.24,16.57-17.24c7.2-3.99,15.69-5.99,25.45-5.99c6.81,0,13.07,0.96,18.79,2.88
				c5.72,1.92,10.55,4.86,14.5,8.8c3.94,3.95,6.76,9.03,8.43,15.24l-22.34,9.03c-1.38-6.12-3.63-10.31-6.73-12.58
				c-3.11-2.27-7.03-3.4-11.76-3.4c-4.64,0-8.66,1.13-12.06,3.4c-3.4,2.27-6.02,5.65-7.84,10.14c-1.83,4.49-2.74,10.09-2.74,16.79
				c0,6.61,0.84,12.18,2.52,16.72c1.68,4.54,4.22,7.94,7.62,10.21c3.4,2.27,7.62,3.4,12.65,3.4c4.73,0,8.75-1.31,12.06-3.92
				c3.3-2.61,5.55-6.63,6.73-12.06L124.4,155.45z"/>
			<path class="st2" d="M182.41,84.27c9.86,0,18.37,2,25.53,5.99c7.15,4,12.65,9.74,16.5,17.24c3.85,7.5,5.77,16.52,5.77,27.08
				c0,10.56-1.92,19.58-5.77,27.08c-3.85,7.5-9.35,13.24-16.5,17.24c-7.15,4-15.66,5.99-25.53,5.99c-9.87,0-18.4-2-25.6-5.99
				c-7.2-4-12.73-9.74-16.57-17.24c-3.85-7.5-5.77-16.52-5.77-27.08c0-10.55,1.92-19.58,5.77-27.08c3.85-7.5,9.37-13.24,16.57-17.24
				C164.01,86.27,172.54,84.27,182.41,84.27z M182.41,104.25c-4.73,0-8.73,1.13-11.99,3.4c-3.26,2.27-5.72,5.65-7.4,10.14
				c-1.68,4.49-2.52,10.09-2.52,16.79c0,6.61,0.84,12.18,2.52,16.72c1.68,4.54,4.14,7.94,7.4,10.21c3.26,2.27,7.25,3.4,11.99,3.4
				c4.74,0,8.71-1.13,11.91-3.4c3.2-2.27,5.65-5.67,7.32-10.21c1.68-4.54,2.52-10.11,2.52-16.72c0-6.71-0.84-12.3-2.52-16.79
				c-1.68-4.49-4.12-7.87-7.32-10.14C191.11,105.39,187.14,104.25,182.41,104.25z"/>
			<path class="st2" d="M335.71,85.75v97.66h-28.26l-30.33-52.83l-7.4-14.5h-0.15l0.59,18.05v49.27h-22.49V85.75h28.26l30.33,52.83
				l7.4,14.5h0.15l-0.59-18.05V85.75H335.71z"/>
			<path class="st2" d="M61.28,195.91v3.54c-2.22,0.39-3.9,0.87-5.06,1.45c-1.16,0.58-2.02,1.4-2.6,2.46s-0.87,2.48-0.87,4.26
				c0,1.64,0.19,3.41,0.58,5.31c0.38,1.9,0.94,4.04,1.66,6.39l16.91,58.96l20.74-59.39c0.29-0.91,0.58-1.88,0.87-2.89
				c0.29-1.01,0.54-2,0.76-2.96c0.22-0.96,0.36-1.81,0.43-2.53s0.11-1.4,0.11-2.02c0-2.89-0.66-5-1.99-6.32
				c-1.33-1.32-3.58-2.23-6.76-2.71v-3.54h30.35v3.54c-1.98,0.48-3.57,1.18-4.77,2.1c-1.2,0.92-2.4,2.38-3.58,4.41
				c-1.18,2.02-2.61,5.25-4.3,9.68l-29.98,80.06h-9.46l-24.35-80.56c-1.3-4.38-2.43-7.5-3.4-9.36c-0.96-1.85-2.02-3.25-3.18-4.19
				c-1.16-0.94-2.75-1.65-4.77-2.13v-3.54H61.28z"/>
			<path class="st2" d="M192.64,195.91v21.82h-7.08c-0.72-2.36-1.47-4.43-2.24-6.21c-0.77-1.78-1.57-3.28-2.38-4.48
				c-0.82-1.2-1.72-2.17-2.71-2.89c-0.99-0.72-2.16-1.22-3.5-1.48c-1.35-0.26-2.96-0.4-4.84-0.4h-22.83v37.86h15.46
				c2.12,0,3.78-0.3,4.99-0.9c1.2-0.6,2.2-1.63,3-3.07c0.79-1.44,1.55-3.71,2.28-6.79h6.79v27.75h-6.79
				c-0.67-2.89-1.42-5.07-2.24-6.54c-0.82-1.47-1.79-2.52-2.93-3.14c-1.13-0.63-2.83-0.94-5.09-0.94h-15.46v41.69h22.47
				c2.36,0,4.27-0.2,5.74-0.61c1.47-0.41,2.73-1.11,3.79-2.1c1.06-0.99,2-2.28,2.82-3.87c0.82-1.59,1.5-3.24,2.06-4.95
				c0.55-1.71,1.31-4.2,2.28-7.48h7.15l-1.37,25.36h-66.91v-3.54c2.99-0.77,4.99-1.62,6-2.56c1.01-0.94,1.67-2.28,1.99-4.01
				c0.31-1.73,0.47-4.38,0.47-7.95v-62.5c0-3.32-0.12-5.74-0.36-7.26c-0.24-1.52-0.64-2.7-1.19-3.54c-0.55-0.84-1.29-1.52-2.2-2.02
				c-0.92-0.51-2.48-1.07-4.7-1.7v-3.54H192.64z"/>
			<path class="st2" d="M232.23,251.69v24.57c0,3.47,0.13,5.99,0.4,7.55c0.26,1.57,0.66,2.75,1.19,3.54
				c0.53,0.79,1.25,1.45,2.17,1.95c0.91,0.51,2.48,1.07,4.7,1.7v3.54h-30.49v-3.54c2.99-0.77,4.99-1.62,6-2.56
				c1.01-0.94,1.67-2.28,1.99-4.01c0.31-1.73,0.47-4.38,0.47-7.95v-62.5c0-3.32-0.12-5.74-0.36-7.26c-0.24-1.52-0.64-2.7-1.19-3.54
				c-0.55-0.84-1.29-1.52-2.2-2.02c-0.92-0.51-2.48-1.07-4.7-1.7v-3.54h35.76c11.27,0,19.7,2.05,25.29,6.14
				c5.59,4.09,8.38,10.45,8.38,19.07c0,6.6-1.82,12.21-5.46,16.83c-3.64,4.62-9.09,8.24-16.37,10.84v0.58
				c2.94,1.21,5.46,2.93,7.55,5.17c2.1,2.24,4.42,5.72,6.97,10.44l6.5,11.85c1.88,3.47,3.49,6.12,4.84,7.95
				c1.35,1.83,2.72,3.23,4.12,4.19c1.4,0.96,3.25,1.64,5.56,2.02v3.54h-20.01c-1.83-2.55-3.56-5.3-5.2-8.24
				c-1.64-2.94-3.25-5.93-4.84-8.96l-6.36-12.07c-1.93-3.66-3.5-6.36-4.73-8.09c-1.23-1.73-2.36-2.95-3.4-3.65
				c-1.04-0.7-2.14-1.18-3.32-1.45c-1.18-0.26-2.95-0.4-5.31-0.4H232.23z M232.23,202.56v42.92h8.16c4.19,0,7.59-0.3,10.19-0.9
				c2.6-0.6,5.01-1.74,7.23-3.43c2.22-1.69,3.99-4.03,5.31-7.04c1.32-3.01,1.99-6.71,1.99-11.09c0-4.58-0.78-8.38-2.35-11.42
				c-1.57-3.04-3.94-5.35-7.12-6.94c-3.18-1.59-7.47-2.38-12.86-2.38C238.44,202.27,234.93,202.36,232.23,202.56z"/>
			<path class="st2" d="M306.51,272.06c0.96,4.24,2.26,7.59,3.9,10.04c1.64,2.46,3.76,4.28,6.36,5.46c2.6,1.18,5.95,1.77,10.04,1.77
				c5.64,0,9.96-1.47,12.97-4.41c3.01-2.94,4.52-7.23,4.52-12.86c0-3.61-0.63-6.65-1.88-9.1c-1.25-2.46-3.3-4.77-6.14-6.94
				c-2.84-2.17-7.18-4.7-13.01-7.59c-5.64-2.79-10.09-5.53-13.37-8.2c-3.28-2.67-5.72-5.58-7.33-8.71
				c-1.61-3.13-2.42-6.55-2.42-10.26c0-5.39,1.26-10.08,3.79-14.05c2.53-3.97,6.24-7.04,11.13-9.21c4.89-2.17,10.49-3.25,16.8-3.25
				c3.66,0,7.24,0.19,10.73,0.58c3.49,0.39,7.86,1.25,13.11,2.6v19.51h-7.15c-1.11-4.24-2.51-7.54-4.19-9.9
				c-1.69-2.36-3.66-4.01-5.92-4.95c-2.26-0.94-5.2-1.41-8.81-1.41c-3.13,0-5.94,0.58-8.42,1.73c-2.48,1.16-4.44,2.9-5.89,5.24
				c-1.45,2.34-2.17,5.12-2.17,8.34c0,3.42,0.61,6.31,1.84,8.67c1.23,2.36,3.14,4.55,5.74,6.57s6.45,4.29,11.56,6.79
				c6.17,3.08,10.95,5.95,14.34,8.6c3.4,2.65,6.04,5.67,7.95,9.07c1.9,3.4,2.85,7.36,2.85,11.89c0,5.06-0.79,9.33-2.38,12.83
				c-1.59,3.49-3.79,6.33-6.61,8.53c-2.82,2.19-6.19,3.78-10.12,4.77c-3.93,0.99-8.23,1.48-12.9,1.48c-7.56,0-16.28-1.28-26.16-3.83
				v-19.8H306.51z"/>
			<path class="st2" d="M420.81,294.53v-3.54c2.41-0.48,4.2-1.01,5.38-1.59c1.18-0.58,2.06-1.38,2.64-2.42
				c0.58-1.04,0.87-2.42,0.87-4.15c0-1.64-0.19-3.41-0.58-5.31c-0.39-1.9-0.94-4.03-1.66-6.39l-2.67-9.32h-33.67l-2.46,7.08
				c-1.25,3.57-2.07,6.26-2.46,8.09c-0.39,1.83-0.58,3.49-0.58,4.98c0,2.89,0.73,5.01,2.2,6.36c1.47,1.35,3.72,2.24,6.76,2.67v3.54
				h-30.85v-3.54c2.7-0.43,5.04-2,7.04-4.7c2-2.7,3.94-6.55,5.82-11.56l30.13-79.98h11.42l24.57,80.56c1.16,3.76,2.18,6.62,3.07,8.6
				c0.89,1.98,1.96,3.52,3.22,4.62c1.25,1.11,2.96,1.93,5.13,2.46v3.54H420.81z M393.06,255.52h30.2l-13.73-46.6L393.06,255.52z"/>
			<path class="st2" d="M119.96,307.99v19.68H88.15v77.98H62.7v-77.98H30.73v-19.68H119.96z"/>
			<path class="st2" d="M174.27,306.51c9.86,0,18.37,2,25.53,5.99c7.15,3.99,12.65,9.74,16.5,17.24c3.85,7.5,5.77,16.52,5.77,27.08
				c0,10.56-1.92,19.58-5.77,27.08c-3.85,7.5-9.35,13.24-16.5,17.24c-7.15,4-15.66,5.99-25.53,5.99c-9.87,0-18.4-2-25.6-5.99
				c-7.2-4-12.73-9.74-16.57-17.24c-3.85-7.5-5.77-16.52-5.77-27.08c0-10.55,1.92-19.58,5.77-27.08c3.85-7.5,9.37-13.24,16.57-17.24
				C155.87,308.5,164.4,306.51,174.27,306.51z M174.27,326.48c-4.73,0-8.73,1.14-11.99,3.4c-3.26,2.27-5.72,5.65-7.4,10.14
				c-1.68,4.49-2.52,10.09-2.52,16.79c0,6.61,0.84,12.19,2.52,16.72c1.68,4.54,4.14,7.94,7.4,10.21c3.26,2.27,7.25,3.4,11.99,3.4
				c4.74,0,8.71-1.13,11.91-3.4c3.2-2.27,5.65-5.67,7.32-10.21c1.68-4.54,2.52-10.11,2.52-16.72c0-6.71-0.84-12.3-2.52-16.79
				c-1.68-4.49-4.12-7.87-7.32-10.14C182.97,327.62,179,326.48,174.27,326.48z"/>
			<path class="st2" d="M286.14,307.99c11.64,0,20.69,2.74,27.15,8.21c6.46,5.47,9.69,12.75,9.69,21.83
				c0,9.97-3.21,17.56-9.62,22.79c-6.41,5.23-15.44,7.84-27.08,7.84l-2.37,1.33h-19.38v35.66h-25.01v-97.66H286.14z M282.58,351.93
				c4.93,0,8.63-0.98,11.1-2.96c2.46-1.97,3.7-5.13,3.7-9.47c0-4.24-1.23-7.35-3.7-9.32c-2.47-1.97-6.17-2.96-11.1-2.96h-18.05
				v24.71H282.58z M297.53,357.26l31.22,48.39h-28.11l-25.01-42.76L297.53,357.26z"/>
			<path class="st2" d="M366.93,307.99v97.66h-25.45v-97.66H366.93z"/>
			<path class="st2" d="M432.33,306.51c9.86,0,18.37,2,25.53,5.99c7.15,3.99,12.65,9.74,16.5,17.24c3.85,7.5,5.77,16.52,5.77,27.08
				c0,10.56-1.92,19.58-5.77,27.08c-3.85,7.5-9.35,13.24-16.5,17.24c-7.15,4-15.66,5.99-25.53,5.99c-9.87,0-18.4-2-25.6-5.99
				c-7.2-4-12.73-9.74-16.57-17.24c-3.85-7.5-5.77-16.52-5.77-27.08c0-10.55,1.92-19.58,5.77-27.08c3.85-7.5,9.37-13.24,16.57-17.24
				C413.93,308.5,422.46,306.51,432.33,306.51z M432.33,326.48c-4.73,0-8.73,1.14-11.99,3.4c-3.26,2.27-5.72,5.65-7.4,10.14
				c-1.68,4.49-2.52,10.09-2.52,16.79c0,6.61,0.84,12.19,2.52,16.72c1.68,4.54,4.14,7.94,7.4,10.21c3.26,2.27,7.25,3.4,11.99,3.4
				c4.74,0,8.71-1.13,11.91-3.4c3.2-2.27,5.65-5.67,7.32-10.21c1.68-4.54,2.52-10.11,2.52-16.72c0-6.71-0.84-12.3-2.52-16.79
				c-1.68-4.49-4.12-7.87-7.32-10.14C441.04,327.62,437.07,326.48,432.33,326.48z"/>
		</g>
	</g>
	<g>
		<path class="st0" d="M171.63,459.89c-0.76,3.27-2.07,5.9-3.92,7.9c-1.85,2-4.09,3.43-6.72,4.3c-2.63,0.87-5.56,1.31-8.79,1.31
			c-4.42,0-8.23-0.85-11.44-2.55c-3.21-1.7-5.67-4.16-7.39-7.39c-1.72-3.23-2.58-7.14-2.58-11.72c0-4.59,0.86-8.49,2.58-11.72
			c1.72-3.23,4.18-5.69,7.39-7.39c3.21-1.7,7.02-2.55,11.44-2.55c3.1,0,5.99,0.44,8.67,1.31c2.68,0.87,4.94,2.24,6.79,4.11
			s3.07,4.31,3.66,7.33l-12.74,4.97c-0.34-2.76-1.03-4.54-2.07-5.35c-1.04-0.81-2.35-1.21-3.92-1.21c-1.44,0-2.67,0.37-3.66,1.11
			c-1,0.74-1.74,1.89-2.23,3.44c-0.49,1.55-0.73,3.54-0.73,5.96c0,2.38,0.22,4.35,0.67,5.93s1.18,2.73,2.2,3.47
			c1.02,0.74,2.38,1.12,4.08,1.12c1.53,0,2.78-0.46,3.76-1.37c0.98-0.91,1.59-2.37,1.85-4.36L171.63,459.89z"/>
		<path class="st0" d="M171.44,472.76l13.63-42.05h17.84l13.7,42.05h-15.16l-5.73-24.15l-1.72-7.14h-0.19l-1.66,7.14l-5.93,24.15
			H171.44z M182.08,464.73v-9.24h24.02v9.24H182.08z"/>
		<path class="st0" d="M252.55,430.71l-14.72,27.46v14.59h-14.84v-14.59l-14.72-27.46h14.78l4.46,9.62l2.99,7.65l2.99-7.65
			l4.46-9.62H252.55z"/>
		<path class="st0" d="M256.31,472.76v-42.05h34.91v10.89h-20.07v5.22h16.18v10.07h-16.18v4.97h20.83v10.89H256.31z"/>
		<path class="st0" d="M335.43,430.71v10.89h-13.12v31.16h-14.84V441.6h-13.19v-10.89H335.43z"/>
		<path class="st0" d="M331.1,472.76l13.63-42.05h17.84l13.7,42.05h-15.16l-5.73-24.15l-1.72-7.14h-0.19l-1.66,7.14l-5.93,24.15
			H331.1z M341.74,464.73v-9.24h24.02v9.24H341.74z"/>
		<path class="st0" d="M419.98,430.71v42.05h-16.06l-10.07-19.11l-2.29-5.16h-0.13l0.25,8.67v15.61h-12.87v-42.05h16.06l10.07,19.18
			l2.29,5.1h0.13l-0.25-8.67v-15.61H419.98z"/>
		<path class="st0" d="M446.42,430.07c4.46,0,8.28,0.85,11.47,2.55c3.19,1.7,5.63,4.16,7.33,7.39c1.7,3.23,2.55,7.14,2.55,11.72
			c0,4.59-0.85,8.5-2.55,11.72c-1.7,3.23-4.14,5.69-7.33,7.39c-3.19,1.7-7.01,2.55-11.47,2.55c-4.42,0-8.23-0.85-11.44-2.55
			c-3.21-1.7-5.67-4.16-7.39-7.39c-1.72-3.23-2.58-7.14-2.58-11.72c0-4.59,0.86-8.49,2.58-11.72c1.72-3.23,4.18-5.69,7.39-7.39
			C438.19,430.92,442,430.07,446.42,430.07z M446.42,441.22c-1.44,0-2.62,0.37-3.54,1.11c-0.91,0.74-1.59,1.88-2.04,3.41
			c-0.45,1.53-0.67,3.53-0.67,5.99c0,2.42,0.22,4.41,0.67,5.96c0.45,1.55,1.12,2.7,2.04,3.44c0.91,0.74,2.09,1.12,3.54,1.12
			c1.44,0,2.62-0.37,3.54-1.12c0.91-0.74,1.58-1.89,2.01-3.44c0.42-1.55,0.64-3.54,0.64-5.96c0-2.46-0.21-4.46-0.64-5.99
			c-0.42-1.53-1.09-2.67-2.01-3.41C449.04,441.59,447.86,441.22,446.42,441.22z"/>
	</g>
	<g>
		<path class="st0" d="M409.19,129.19v26.35c0,2.48,2.7,4.02,4.84,2.76l53.54-31.76c0.75-0.45,1.61-0.68,2.49-0.68h36.03
			c5.87,0,10.63-4.76,10.63-10.63V37.25c0-5.87-4.76-10.63-10.63-10.63H398.43c-5.87,0-10.63,4.76-10.63,10.63v77.97
			c0,5.87,4.76,10.63,10.63,10.63h7.42C407.69,125.85,409.19,127.35,409.19,129.19z"/>
		<path class="st0" d="M530.68,45.06h-13.14v70.66c0,5.87-4.76,10.63-10.63,10.63h-36.03c-0.88,0-1.74,0.24-2.49,0.68l-34.61,20.53
			c0,0.02,0,0.04,0,0.06v26.35c0,2.48,2.7,4.02,4.84,2.76l53.54-31.76c0.75-0.45,1.61-0.68,2.49-0.68h36.03
			c5.87,0,10.63-4.76,10.63-10.63V55.69C541.31,49.82,536.55,45.06,530.68,45.06z"/>
	</g>
</g>
<g>
	<path class="st3" d="M330.35,586.21c-17.29-1.93-99.65-64.05-133.94-137.96c-30.91-68.94-21.4-132.68-17.34-166.5
		c0,0,18.11-150.14,26.19-217.11c97.89-10.08,187.78,1.89,187.78,1.89s90.16,9.76,182.84,42.82
		c-8.08,66.97-26.19,217.11-26.19,217.11c-4.1,33.82-10.02,97.99-56.44,157.6C442.37,547.69,347.6,588.44,330.35,586.21z"/>
	<g>
		<g>
			<path class="st4" d="M124.4,155.45c-1.88,6.81-4.88,12.41-9.03,16.79c-4.14,4.39-9.08,7.6-14.8,9.62
				c-5.72,2.02-12.04,3.03-18.94,3.03c-9.87,0-18.4-2-25.6-5.99c-7.2-4-12.73-9.74-16.57-17.24c-3.85-7.5-5.77-16.52-5.77-27.08
				c0-10.55,1.92-19.58,5.77-27.08c3.85-7.5,9.37-13.24,16.57-17.24c7.2-3.99,15.69-5.99,25.45-5.99c6.81,0,13.07,0.96,18.79,2.88
				c5.72,1.92,10.55,4.86,14.5,8.8c3.94,3.95,6.76,9.03,8.43,15.24l-22.34,9.03c-1.38-6.12-3.63-10.31-6.73-12.58
				c-3.11-2.27-7.03-3.4-11.76-3.4c-4.64,0-8.66,1.13-12.06,3.4c-3.4,2.27-6.02,5.65-7.84,10.14c-1.83,4.49-2.74,10.09-2.74,16.79
				c0,6.61,0.84,12.18,2.52,16.72c1.68,4.54,4.22,7.94,7.62,10.21c3.4,2.27,7.62,3.4,12.65,3.4c4.73,0,8.75-1.31,12.06-3.92
				c3.3-2.61,5.55-6.63,6.73-12.06L124.4,155.45z"/>
			<path class="st4" d="M182.41,84.27c9.86,0,18.37,2,25.53,5.99c7.15,4,12.65,9.74,16.5,17.24c3.85,7.5,5.77,16.52,5.77,27.08
				c0,10.56-1.92,19.58-5.77,27.08c-3.85,7.5-9.35,13.24-16.5,17.24c-7.15,4-15.66,5.99-25.53,5.99c-9.87,0-18.4-2-25.6-5.99
				c-7.2-4-12.73-9.74-16.57-17.24c-3.85-7.5-5.77-16.52-5.77-27.08c0-10.55,1.92-19.58,5.77-27.08c3.85-7.5,9.37-13.24,16.57-17.24
				C164.01,86.27,172.54,84.27,182.41,84.27z M182.41,104.25c-4.73,0-8.73,1.13-11.99,3.4c-3.26,2.27-5.72,5.65-7.4,10.14
				c-1.68,4.49-2.52,10.09-2.52,16.79c0,6.61,0.84,12.18,2.52,16.72c1.68,4.54,4.14,7.94,7.4,10.21c3.26,2.27,7.25,3.4,11.99,3.4
				c4.74,0,8.71-1.13,11.91-3.4c3.2-2.27,5.65-5.67,7.32-10.21c1.68-4.54,2.52-10.11,2.52-16.72c0-6.71-0.84-12.3-2.52-16.79
				c-1.68-4.49-4.12-7.87-7.32-10.14C191.11,105.39,187.14,104.25,182.41,104.25z"/>
			<path class="st4" d="M335.71,85.75v97.66h-28.26l-30.33-52.83l-7.4-14.5h-0.15l0.59,18.05v49.27h-22.49V85.75h28.26l30.33,52.83
				l7.4,14.5h0.15l-0.59-18.05V85.75H335.71z"/>
			<path class="st4" d="M61.28,195.91v3.54c-2.22,0.39-3.9,0.87-5.06,1.45c-1.16,0.58-2.02,1.4-2.6,2.46s-0.87,2.48-0.87,4.26
				c0,1.64,0.19,3.41,0.58,5.31c0.38,1.9,0.94,4.04,1.66,6.39l16.91,58.96l20.74-59.39c0.29-0.91,0.58-1.88,0.87-2.89
				c0.29-1.01,0.54-2,0.76-2.96c0.22-0.96,0.36-1.81,0.43-2.53s0.11-1.4,0.11-2.02c0-2.89-0.66-5-1.99-6.32
				c-1.33-1.32-3.58-2.23-6.76-2.71v-3.54h30.35v3.54c-1.98,0.48-3.57,1.18-4.77,2.1c-1.2,0.92-2.4,2.38-3.58,4.41
				c-1.18,2.02-2.61,5.25-4.3,9.68l-29.98,80.06h-9.46l-24.35-80.56c-1.3-4.38-2.43-7.5-3.4-9.36c-0.96-1.85-2.02-3.25-3.18-4.19
				c-1.16-0.94-2.75-1.65-4.77-2.13v-3.54H61.28z"/>
			<path class="st4" d="M192.64,195.91v21.82h-7.08c-0.72-2.36-1.47-4.43-2.24-6.21c-0.77-1.78-1.57-3.28-2.38-4.48
				c-0.82-1.2-1.72-2.17-2.71-2.89c-0.99-0.72-2.16-1.22-3.5-1.48c-1.35-0.26-2.96-0.4-4.84-0.4h-22.83v37.86h15.46
				c2.12,0,3.78-0.3,4.99-0.9c1.2-0.6,2.2-1.63,3-3.07c0.79-1.44,1.55-3.71,2.28-6.79h6.79v27.75h-6.79
				c-0.67-2.89-1.42-5.07-2.24-6.54c-0.82-1.47-1.79-2.52-2.93-3.14c-1.13-0.63-2.83-0.94-5.09-0.94h-15.46v41.69h22.47
				c2.36,0,4.27-0.2,5.74-0.61c1.47-0.41,2.73-1.11,3.79-2.1c1.06-0.99,2-2.28,2.82-3.87c0.82-1.59,1.5-3.24,2.06-4.95
				c0.55-1.71,1.31-4.2,2.28-7.48h7.15l-1.37,25.36h-66.91v-3.54c2.99-0.77,4.99-1.62,6-2.56c1.01-0.94,1.67-2.28,1.99-4.01
				c0.31-1.73,0.47-4.38,0.47-7.95v-62.5c0-3.32-0.12-5.74-0.36-7.26c-0.24-1.52-0.64-2.7-1.19-3.54c-0.55-0.84-1.29-1.52-2.2-2.02
				c-0.92-0.51-2.48-1.07-4.7-1.7v-3.54H192.64z"/>
			<path class="st4" d="M232.23,251.69v24.57c0,3.47,0.13,5.99,0.4,7.55c0.26,1.57,0.66,2.75,1.19,3.54
				c0.53,0.79,1.25,1.45,2.17,1.95c0.91,0.51,2.48,1.07,4.7,1.7v3.54h-30.49v-3.54c2.99-0.77,4.99-1.62,6-2.56
				c1.01-0.94,1.67-2.28,1.99-4.01c0.31-1.73,0.47-4.38,0.47-7.95v-62.5c0-3.32-0.12-5.74-0.36-7.26c-0.24-1.52-0.64-2.7-1.19-3.54
				c-0.55-0.84-1.29-1.52-2.2-2.02c-0.92-0.51-2.48-1.07-4.7-1.7v-3.54h35.76c11.27,0,19.7,2.05,25.29,6.14
				c5.59,4.09,8.38,10.45,8.38,19.07c0,6.6-1.82,12.21-5.46,16.83c-3.64,4.62-9.09,8.24-16.37,10.84v0.58
				c2.94,1.21,5.46,2.93,7.55,5.17c2.1,2.24,4.42,5.72,6.97,10.44l6.5,11.85c1.88,3.47,3.49,6.12,4.84,7.95
				c1.35,1.83,2.72,3.23,4.12,4.19c1.4,0.96,3.25,1.64,5.56,2.02v3.54h-20.01c-1.83-2.55-3.56-5.3-5.2-8.24
				c-1.64-2.94-3.25-5.93-4.84-8.96l-6.36-12.07c-1.93-3.66-3.5-6.36-4.73-8.09c-1.23-1.73-2.36-2.95-3.4-3.65
				c-1.04-0.7-2.14-1.18-3.32-1.45c-1.18-0.26-2.95-0.4-5.31-0.4H232.23z M232.23,202.56v42.92h8.16c4.19,0,7.59-0.3,10.19-0.9
				c2.6-0.6,5.01-1.74,7.23-3.43c2.22-1.69,3.99-4.03,5.31-7.04c1.32-3.01,1.99-6.71,1.99-11.09c0-4.58-0.78-8.38-2.35-11.42
				c-1.57-3.04-3.94-5.35-7.12-6.94c-3.18-1.59-7.47-2.38-12.86-2.38C238.44,202.27,234.93,202.36,232.23,202.56z"/>
			<path class="st4" d="M306.51,272.06c0.96,4.24,2.26,7.59,3.9,10.04c1.64,2.46,3.76,4.28,6.36,5.46c2.6,1.18,5.95,1.77,10.04,1.77
				c5.64,0,9.96-1.47,12.97-4.41c3.01-2.94,4.52-7.23,4.52-12.86c0-3.61-0.63-6.65-1.88-9.1c-1.25-2.46-3.3-4.77-6.14-6.94
				c-2.84-2.17-7.18-4.7-13.01-7.59c-5.64-2.79-10.09-5.53-13.37-8.2c-3.28-2.67-5.72-5.58-7.33-8.71
				c-1.61-3.13-2.42-6.55-2.42-10.26c0-5.39,1.26-10.08,3.79-14.05c2.53-3.97,6.24-7.04,11.13-9.21c4.89-2.17,10.49-3.25,16.8-3.25
				c3.66,0,7.24,0.19,10.73,0.58c3.49,0.39,7.86,1.25,13.11,2.6v19.51h-7.15c-1.11-4.24-2.51-7.54-4.19-9.9
				c-1.69-2.36-3.66-4.01-5.92-4.95c-2.26-0.94-5.2-1.41-8.81-1.41c-3.13,0-5.94,0.58-8.42,1.73c-2.48,1.16-4.44,2.9-5.89,5.24
				c-1.45,2.34-2.17,5.12-2.17,8.34c0,3.42,0.61,6.31,1.84,8.67c1.23,2.36,3.14,4.55,5.74,6.57s6.45,4.29,11.56,6.79
				c6.17,3.08,10.95,5.95,14.34,8.6c3.4,2.65,6.04,5.67,7.95,9.07c1.9,3.4,2.85,7.36,2.85,11.89c0,5.06-0.79,9.33-2.38,12.83
				c-1.59,3.49-3.79,6.33-6.61,8.53c-2.82,2.19-6.19,3.78-10.12,4.77c-3.93,0.99-8.23,1.48-12.9,1.48c-7.56,0-16.28-1.28-26.16-3.83
				v-19.8H306.51z"/>
			<path class="st4" d="M420.81,294.53v-3.54c2.41-0.48,4.2-1.01,5.38-1.59c1.18-0.58,2.06-1.38,2.64-2.42
				c0.58-1.04,0.87-2.42,0.87-4.15c0-1.64-0.19-3.41-0.58-5.31c-0.39-1.9-0.94-4.03-1.66-6.39l-2.67-9.32h-33.67l-2.46,7.08
				c-1.25,3.57-2.07,6.26-2.46,8.09c-0.39,1.83-0.58,3.49-0.58,4.98c0,2.89,0.73,5.01,2.2,6.36c1.47,1.35,3.72,2.24,6.76,2.67v3.54
				h-30.85v-3.54c2.7-0.43,5.04-2,7.04-4.7c2-2.7,3.94-6.55,5.82-11.56l30.13-79.98h11.42l24.57,80.56c1.16,3.76,2.18,6.62,3.07,8.6
				c0.89,1.98,1.96,3.52,3.22,4.62c1.25,1.11,2.96,1.93,5.13,2.46v3.54H420.81z M393.06,255.52h30.2l-13.73-46.6L393.06,255.52z"/>
			<path class="st4" d="M119.96,307.99v19.68H88.15v77.98H62.7v-77.98H30.73v-19.68H119.96z"/>
			<path class="st4" d="M174.27,306.51c9.86,0,18.37,2,25.53,5.99c7.15,3.99,12.65,9.74,16.5,17.24c3.85,7.5,5.77,16.52,5.77,27.08
				c0,10.56-1.92,19.58-5.77,27.08c-3.85,7.5-9.35,13.24-16.5,17.24c-7.15,4-15.66,5.99-25.53,5.99c-9.87,0-18.4-2-25.6-5.99
				c-7.2-4-12.73-9.74-16.57-17.24c-3.85-7.5-5.77-16.52-5.77-27.08c0-10.55,1.92-19.58,5.77-27.08c3.85-7.5,9.37-13.24,16.57-17.24
				C155.87,308.5,164.4,306.51,174.27,306.51z M174.27,326.48c-4.73,0-8.73,1.14-11.99,3.4c-3.26,2.27-5.72,5.65-7.4,10.14
				c-1.68,4.49-2.52,10.09-2.52,16.79c0,6.61,0.84,12.19,2.52,16.72c1.68,4.54,4.14,7.94,7.4,10.21c3.26,2.27,7.25,3.4,11.99,3.4
				c4.74,0,8.71-1.13,11.91-3.4c3.2-2.27,5.65-5.67,7.32-10.21c1.68-4.54,2.52-10.11,2.52-16.72c0-6.71-0.84-12.3-2.52-16.79
				c-1.68-4.49-4.12-7.87-7.32-10.14C182.97,327.62,179,326.48,174.27,326.48z"/>
			<path class="st4" d="M286.14,307.99c11.64,0,20.69,2.74,27.15,8.21c6.46,5.47,9.69,12.75,9.69,21.83
				c0,9.97-3.21,17.56-9.62,22.79c-6.41,5.23-15.44,7.84-27.08,7.84l-2.37,1.33h-19.38v35.66h-25.01v-97.66H286.14z M282.58,351.93
				c4.93,0,8.63-0.98,11.1-2.96c2.46-1.97,3.7-5.13,3.7-9.47c0-4.24-1.23-7.35-3.7-9.32c-2.47-1.97-6.17-2.96-11.1-2.96h-18.05
				v24.71H282.58z M297.53,357.26l31.22,48.39h-28.11l-25.01-42.76L297.53,357.26z"/>
			<path class="st4" d="M366.93,307.99v97.66h-25.45v-97.66H366.93z"/>
			<path class="st4" d="M432.33,306.51c9.86,0,18.37,2,25.53,5.99c7.15,3.99,12.65,9.74,16.5,17.24c3.85,7.5,5.77,16.52,5.77,27.08
				c0,10.56-1.92,19.58-5.77,27.08c-3.85,7.5-9.35,13.24-16.5,17.24c-7.15,4-15.66,5.99-25.53,5.99c-9.87,0-18.4-2-25.6-5.99
				c-7.2-4-12.73-9.74-16.57-17.24c-3.85-7.5-5.77-16.52-5.77-27.08c0-10.55,1.92-19.58,5.77-27.08c3.85-7.5,9.37-13.24,16.57-17.24
				C413.93,308.5,422.46,306.51,432.33,306.51z M432.33,326.48c-4.73,0-8.73,1.14-11.99,3.4c-3.26,2.27-5.72,5.65-7.4,10.14
				c-1.68,4.49-2.52,10.09-2.52,16.79c0,6.61,0.84,12.19,2.52,16.72c1.68,4.54,4.14,7.94,7.4,10.21c3.26,2.27,7.25,3.4,11.99,3.4
				c4.74,0,8.71-1.13,11.91-3.4c3.2-2.27,5.65-5.67,7.32-10.21c1.68-4.54,2.52-10.11,2.52-16.72c0-6.71-0.84-12.3-2.52-16.79
				c-1.68-4.49-4.12-7.87-7.32-10.14C441.04,327.62,437.07,326.48,432.33,326.48z"/>
		</g>
	</g>
	<g>
		<path class="st5" d="M171.63,459.89c-0.76,3.27-2.07,5.9-3.92,7.9c-1.85,2-4.09,3.43-6.72,4.3c-2.63,0.87-5.56,1.31-8.79,1.31
			c-4.42,0-8.23-0.85-11.44-2.55c-3.21-1.7-5.67-4.16-7.39-7.39c-1.72-3.23-2.58-7.14-2.58-11.72c0-4.59,0.86-8.49,2.58-11.72
			c1.72-3.23,4.18-5.69,7.39-7.39c3.21-1.7,7.02-2.55,11.44-2.55c3.1,0,5.99,0.44,8.67,1.31c2.68,0.87,4.94,2.24,6.79,4.11
			s3.07,4.31,3.66,7.33l-12.74,4.97c-0.34-2.76-1.03-4.54-2.07-5.35c-1.04-0.81-2.35-1.21-3.92-1.21c-1.44,0-2.67,0.37-3.66,1.11
			c-1,0.74-1.74,1.89-2.23,3.44c-0.49,1.55-0.73,3.54-0.73,5.96c0,2.38,0.22,4.35,0.67,5.93s1.18,2.73,2.2,3.47
			c1.02,0.74,2.38,1.12,4.08,1.12c1.53,0,2.78-0.46,3.76-1.37c0.98-0.91,1.59-2.37,1.85-4.36L171.63,459.89z"/>
		<path class="st5" d="M171.44,472.76l13.63-42.05h17.84l13.7,42.05h-15.16l-5.73-24.15l-1.72-7.14h-0.19l-1.66,7.14l-5.93,24.15
			H171.44z M182.08,464.73v-9.24h24.02v9.24H182.08z"/>
		<path class="st5" d="M252.55,430.71l-14.72,27.46v14.59h-14.84v-14.59l-14.72-27.46h14.78l4.46,9.62l2.99,7.65l2.99-7.65
			l4.46-9.62H252.55z"/>
		<path class="st5" d="M256.31,472.76v-42.05h34.91v10.89h-20.07v5.22h16.18v10.07h-16.18v4.97h20.83v10.89H256.31z"/>
		<path class="st5" d="M335.43,430.71v10.89h-13.12v31.16h-14.84V441.6h-13.19v-10.89H335.43z"/>
		<path class="st5" d="M331.1,472.76l13.63-42.05h17.84l13.7,42.05h-15.16l-5.73-24.15l-1.72-7.14h-0.19l-1.66,7.14l-5.93,24.15
			H331.1z M341.74,464.73v-9.24h24.02v9.24H341.74z"/>
		<path class="st5" d="M419.98,430.71v42.05h-16.06l-10.07-19.11l-2.29-5.16h-0.13l0.25,8.67v15.61h-12.87v-42.05h16.06l10.07,19.18
			l2.29,5.1h0.13l-0.25-8.67v-15.61H419.98z"/>
		<path class="st5" d="M446.42,430.07c4.46,0,8.28,0.85,11.47,2.55c3.19,1.7,5.63,4.16,7.33,7.39c1.7,3.23,2.55,7.14,2.55,11.72
			c0,4.59-0.85,8.5-2.55,11.72c-1.7,3.23-4.14,5.69-7.33,7.39c-3.19,1.7-7.01,2.55-11.47,2.55c-4.42,0-8.23-0.85-11.44-2.55
			c-3.21-1.7-5.67-4.16-7.39-7.39c-1.72-3.23-2.58-7.14-2.58-11.72c0-4.59,0.86-8.49,2.58-11.72c1.72-3.23,4.18-5.69,7.39-7.39
			C438.19,430.92,442,430.07,446.42,430.07z M446.42,441.22c-1.44,0-2.62,0.37-3.54,1.11c-0.91,0.74-1.59,1.88-2.04,3.41
			c-0.45,1.53-0.67,3.53-0.67,5.99c0,2.42,0.22,4.41,0.67,5.96c0.45,1.55,1.12,2.7,2.04,3.44c0.91,0.74,2.09,1.12,3.54,1.12
			c1.44,0,2.62-0.37,3.54-1.12c0.91-0.74,1.58-1.89,2.01-3.44c0.42-1.55,0.64-3.54,0.64-5.96c0-2.46-0.21-4.46-0.64-5.99
			c-0.42-1.53-1.09-2.67-2.01-3.41C449.04,441.59,447.86,441.22,446.42,441.22z"/>
	</g>
	<g>
		<path class="st6" d="M409.19,129.19v26.35c0,2.48,2.7,4.02,4.84,2.76l53.54-31.76c0.75-0.45,1.61-0.68,2.49-0.68h36.03
			c5.87,0,10.63-4.76,10.63-10.63V37.25c0-5.87-4.76-10.63-10.63-10.63H398.43c-5.87,0-10.63,4.76-10.63,10.63v77.97
			c0,5.87,4.76,10.63,10.63,10.63h7.42C407.69,125.85,409.19,127.35,409.19,129.19z"/>
		<path class="st6" d="M530.68,45.06h-13.14v70.66c0,5.87-4.76,10.63-10.63,10.63h-36.03c-0.88,0-1.74,0.24-2.49,0.68l-34.61,20.53
			c0,0.02,0,0.04,0,0.06v26.35c0,2.48,2.7,4.02,4.84,2.76l53.54-31.76c0.75-0.45,1.61-0.68,2.49-0.68h36.03
			c5.87,0,10.63-4.76,10.63-10.63V55.69C541.31,49.82,536.55,45.06,530.68,45.06z"/>
	</g>
</g>
</svg>
