<?xml version="1.0" encoding="utf-8"?>
<!-- Generator: Adobe Illustrator 27.0.1, SVG Export Plug-In . SVG Version: 6.00 Build 0)  -->
<svg version="1.1" id="Capa_1" xmlns="http://www.w3.org/2000/svg" xmlns:xlink="http://www.w3.org/1999/xlink" x="0px" y="0px"
	 viewBox="0 0 384 465" style="enable-background:new 0 0 384 465;" xml:space="preserve">
<style type="text/css">
	.st0{fill:#FFFFFF;}
	.st1{fill:none;stroke:#FFFFFF;stroke-width:1.5;stroke-miterlimit:10;}
</style>
<g>
	<g>
		<g>
			<g>
				<path class="st0" d="M182.89,453c-2.5-1.96-5.24-3.69-7.48-5.92c-30.93-30.82-61.53-61.96-88.56-96.35
					c-23.07-29.35-43.61-60.24-57.25-95.26c-7.87-20.2-12.95-41.05-13.69-62.79c-1.31-38.44,11.33-72.15,34.93-102.11
					c25.06-31.81,56.43-54.5,96.35-62.9c66.74-14.04,122.87,5.33,167.69,56.76c19.57,22.45,32.95,48.11,38,77.74
					c4.79,28.1,1.13,55.42-7.73,82.25c-10.33,31.25-26.79,59.25-45.81,85.86c-26.62,37.24-57.84,70.45-89.97,102.87
					c-4.73,4.77-9.39,9.61-14.25,14.24c-2.19,2.09-4.78,3.75-7.19,5.61C186.25,453,184.57,453,182.89,453z M185.15,428.41
					c0.73-0.46,1.13-0.62,1.41-0.9c31.72-31.83,62.98-64.07,89.95-100.16c20.08-26.88,37.78-55.13,48.82-87.06
					c9.31-26.93,12.82-54.36,6.16-82.5c-5.95-25.15-18.82-46.56-36.3-65.21c-39.67-42.32-88.12-57.69-144.73-45.02
					c-36.69,8.21-64.82,29.85-87,59.68c-22.53,30.3-31.62,64.04-25.85,101.56c4.14,26.92,14.47,51.57,27.91,74.99
					C97.06,338.76,140.76,383.69,185.15,428.41z"/>
			</g>
			<g>
				<path class="st1" d="M182.89,453c-2.5-1.96-5.24-3.69-7.48-5.92c-30.93-30.82-61.53-61.96-88.56-96.35
					c-23.07-29.35-43.61-60.24-57.25-95.26c-7.87-20.2-12.95-41.05-13.69-62.79c-1.31-38.44,11.33-72.15,34.93-102.11
					c25.06-31.81,56.43-54.5,96.35-62.9c66.74-14.04,122.87,5.33,167.69,56.76c19.57,22.45,32.95,48.11,38,77.74
					c4.79,28.1,1.13,55.42-7.73,82.25c-10.33,31.25-26.79,59.25-45.81,85.86c-26.62,37.24-57.84,70.45-89.97,102.87
					c-4.73,4.77-9.39,9.61-14.25,14.24c-2.19,2.09-4.78,3.75-7.19,5.61C186.25,453,184.57,453,182.89,453z M185.15,428.41
					c0.73-0.46,1.13-0.62,1.41-0.9c31.72-31.83,62.98-64.07,89.95-100.16c20.08-26.88,37.78-55.13,48.82-87.06
					c9.31-26.93,12.82-54.36,6.16-82.5c-5.95-25.15-18.82-46.56-36.3-65.21c-39.67-42.32-88.12-57.69-144.73-45.02
					c-36.69,8.21-64.82,29.85-87,59.68c-22.53,30.3-31.62,64.04-25.85,101.56c4.14,26.92,14.47,51.57,27.91,74.99
					C97.06,338.76,140.76,383.69,185.15,428.41z"/>
			</g>
		</g>
		<g>
			<g>
				<path class="st0" d="M185.28,125.46c40.87-0.06,73.98,32.9,74.07,73.71c0.09,40.86-32.9,74.11-73.62,74.19
					c-41.09,0.09-74.27-32.95-74.28-73.94C111.45,158.56,144.44,125.52,185.28,125.46z M185.73,145.61
					c-29.69-0.13-53.92,23.68-54.11,53.15c-0.2,29.91,23.67,54.3,53.26,54.45c29.92,0.14,54.19-23.71,54.33-53.38
					C239.34,169.91,215.49,145.74,185.73,145.61z"/>
			</g>
			<g>
				<path class="st1" d="M185.28,125.46c40.87-0.06,73.98,32.9,74.07,73.71c0.09,40.86-32.9,74.11-73.62,74.19
					c-41.09,0.09-74.27-32.95-74.28-73.94C111.45,158.56,144.44,125.52,185.28,125.46z M185.73,145.61
					c-29.69-0.13-53.92,23.68-54.11,53.15c-0.2,29.91,23.67,54.3,53.26,54.45c29.92,0.14,54.19-23.71,54.33-53.38
					C239.34,169.91,215.49,145.74,185.73,145.61z"/>
			</g>
		</g>
	</g>
</g>
</svg>
