<?xml version="1.0" encoding="utf-8"?>
<!-- Generator: Adobe Illustrator 27.0.1, SVG Export Plug-In . SVG Version: 6.00 Build 0)  -->
<svg version="1.1" id="Capa_1" xmlns="http://www.w3.org/2000/svg" xmlns:xlink="http://www.w3.org/1999/xlink" x="0px" y="0px"
	 viewBox="0 0 676 655" style="enable-background:new 0 0 676 655;" xml:space="preserve">
<style type="text/css">
	.st0{fill:#FFFFFF;}
</style>
<g>
	<g>
		<path class="st0" d="M464.98,637.9H216.47c-110.29,0-200.03-89.73-200.03-200.02v-219c0-110.29,89.74-200.02,200.03-200.02h248.51
			C575.26,18.86,665,108.59,665,218.88v219C665,548.17,575.26,637.9,464.98,637.9z M216.47,63.31
			c-85.79,0-155.57,69.79-155.57,155.57v219c0,85.78,69.79,155.57,155.57,155.57h248.51c85.78,0,155.57-69.79,155.57-155.57v-219
			c0-85.78-69.79-155.57-155.57-155.57H216.47z"/>
	</g>
	<g>
		<path class="st0" d="M340.73,506.43c-98.19,0-178.05-79.87-178.05-178.05c0-98.18,79.86-178.05,178.05-178.05
			c98.18,0,178.05,79.87,178.05,178.05C518.77,426.56,438.9,506.43,340.73,506.43z M340.73,194.79
			c-73.67,0-133.61,59.92-133.61,133.6c0,73.67,59.94,133.6,133.61,133.6c73.66,0,133.6-59.93,133.6-133.6
			C474.32,254.71,414.39,194.79,340.73,194.79z"/>
	</g>
	<g>
		<path class="st0" d="M552.99,155.81c0,20.4-16.53,36.94-36.94,36.94c-20.41,0-36.95-16.53-36.95-36.94
			c0-20.41,16.55-36.95,36.95-36.95C536.46,118.86,552.99,135.4,552.99,155.81z"/>
	</g>
</g>
</svg>
