<?xml version="1.0" encoding="utf-8"?>
<!-- Generator: Adobe Illustrator 27.0.1, SVG Export Plug-In . SVG Version: 6.00 Build 0)  -->
<svg version="1.1" id="Capa_1" xmlns="http://www.w3.org/2000/svg" xmlns:xlink="http://www.w3.org/1999/xlink" x="0px" y="0px"
	 viewBox="0 0 1080 1080" style="enable-background:new 0 0 1080 1080;" xml:space="preserve">
<style type="text/css">
	.st0{fill:#FFFFFF;}
</style>
<g>
	<g>
		<g>
			<g>
				<path class="st0" d="M541.38,33.31C261.75,32.51,35,256.15,32.83,539.22c-1.99,278.21,225.74,506.71,506.55,508.27
					c278.2,1.55,506.22-224.12,507.61-505.74C1048.38,262.82,825.01,34.12,541.38,33.31z M539.53,955.12
					c-228.64-0.49-414.54-186.79-414.32-415.21c0.22-228.54,186.42-414.58,414.93-414.57c228.57,0.01,414.7,186.02,414.89,414.63
					C955.22,768.83,768.28,955.62,539.53,955.12z"/>
			</g>
		</g>
		<path class="st0" d="M494.27,401.69c0-46.43-0.23-92.86,0.11-139.28c0.15-19.57,10.25-33.66,28.02-41.1
			c17.32-7.25,33.98-4.43,48.31,8.03c11.31,9.83,15.45,22.72,15.4,37.59c-0.21,56.87-0.09,113.73-0.09,170.6
			c0,24.83,0.2,49.67-0.14,74.5c-0.08,6.27,1.79,10.69,6.22,15.09c39.34,39.05,78.66,78.11,117.59,117.57
			c25.97,26.33,16.27,67.79-18.03,77.89c-16.75,4.94-32.43,1.62-44.94-10.79c-46.76-46.38-93.25-93.04-139.75-139.7
			c-9.69-9.73-12.94-21.84-12.87-35.43c0.24-44.99,0.09-89.98,0.09-134.97C494.23,401.69,494.25,401.69,494.27,401.69z"/>
	</g>
</g>
</svg>
