<?xml version="1.0" encoding="utf-8"?>
<!-- Generator: Adobe Illustrator 27.0.1, SVG Export Plug-In . SVG Version: 6.00 Build 0)  -->
<svg version="1.1" id="Capa_1" xmlns="http://www.w3.org/2000/svg" xmlns:xlink="http://www.w3.org/1999/xlink" x="0px" y="0px"
	 viewBox="0 0 1080 1080" style="enable-background:new 0 0 1080 1080;" xml:space="preserve">
<style type="text/css">
	.st0{fill:#FFE679;}
	.st1{fill:#B01333;}
	.st2{fill:#231F1F;}
</style>
<g>
	<g>
		<path class="st0" d="M608.79,1043.85c-28.65-3.19-165.1-106.11-221.91-228.58c-51.21-114.22-35.45-219.82-28.72-275.86
			c0,0,30.01-248.76,43.4-359.71c162.19-16.7,311.12,3.13,311.12,3.13S862.03,199,1015.6,253.79
			c-13.39,110.95-43.4,359.71-43.4,359.71c-6.79,56.03-16.6,162.35-93.5,261.12C794.39,980.05,637.37,1047.56,608.79,1043.85z"/>
	</g>
	<g>
		<path class="st1" d="M295.14,43.68v42.39h-68.53v167.97h-54.82V86.07h-68.85V43.68H295.14z"/>
		<path class="st1" d="M491.16,254.04h-56.42l-14.66-47.49h-72.03l-14.98,47.49h-55.14l73.95-210.36h65.66L491.16,254.04z
			 M358.25,169.26h51.63l-25.82-85.1L358.25,169.26z"/>
		<path class="st1" d="M103.22,485.76c3.94-0.62,6.9-1.63,8.87-3.04c1.97-1.4,3.63-3.35,4.98-5.84c1.35-2.49,2.59-5.52,3.74-9.1
			c1.14-3.58,2.85-10.5,5.14-20.78l26.46-119.84c1.04-4.77,1.87-9.36,2.49-13.77c0.62-4.41,0.93-8.17,0.93-11.28
			c0-4.88-1.25-8.27-3.74-10.19c-2.49-1.92-6.33-3.04-11.52-3.35l1.71-7.63h62.25l-1.71,7.63c-3.94,0.83-6.77,1.77-8.48,2.8
			c-1.71,1.04-3.27,2.59-4.67,4.67c-1.4,2.08-2.8,5.32-4.2,9.73c-1.4,4.41-3.19,11.59-5.37,21.56L146.8,479.07h38.29
			c6.95,0,12.42-0.67,16.42-2.02c3.99-1.35,7.78-3.81,11.36-7.39c3.58-3.58,7.08-8.43,10.51-14.55c3.42-6.12,6.9-13.75,10.43-22.88
			h15.1l-15.72,61.16H101.51L103.22,485.76z"/>
		<path class="st1" d="M269.91,485.76c3.94-0.62,6.9-1.63,8.87-3.04c1.97-1.4,3.63-3.35,4.98-5.84c1.35-2.49,2.59-5.52,3.74-9.1
			c1.14-3.58,2.85-10.5,5.14-20.78l26.46-119.84c1.04-4.77,1.87-9.36,2.49-13.77c0.62-4.41,0.93-8.17,0.93-11.28
			c0-4.88-1.25-8.27-3.74-10.19c-2.49-1.92-6.33-3.04-11.52-3.35l1.71-7.63h62.25l-1.71,7.63c-3.94,0.83-6.77,1.77-8.48,2.8
			c-1.71,1.04-3.27,2.59-4.67,4.67c-1.4,2.08-2.8,5.32-4.2,9.73c-1.4,4.41-3.19,11.59-5.37,21.56l-33.31,151.74h38.29
			c6.95,0,12.42-0.67,16.42-2.02c3.99-1.35,7.78-3.81,11.36-7.39c3.58-3.58,7.08-8.43,10.51-14.55c3.42-6.12,6.9-13.75,10.43-22.88
			h15.1l-15.72,61.16H268.19L269.91,485.76z"/>
		<path class="st1" d="M618.83,280.95l-10.74,47.78h-14.94c-0.31-7.47-0.88-13.31-1.71-17.51c-0.83-4.2-1.77-7.31-2.8-9.34
			c-1.04-2.02-2.23-3.53-3.58-4.51c-1.35-0.98-3.03-1.69-5.06-2.1c-2.02-0.41-4.9-0.62-8.64-0.62h-50.74l-17.74,81.55h29.72
			c4.56,0,8.38-0.62,11.44-1.87c3.06-1.25,5.89-3.4,8.48-6.46c2.59-3.06,5.5-7.75,8.71-14.08h14.16l-14.01,59.76h-13.23
			c0-5.71-0.21-9.91-0.62-12.61c-0.42-2.7-0.96-4.69-1.63-5.99c-0.68-1.3-1.53-2.31-2.57-3.03c-1.04-0.72-2.39-1.25-4.05-1.56
			c-1.66-0.31-4.41-0.47-8.25-0.47h-31.12l-19.92,89.8h46.07c4.56,0,8.43-0.34,11.6-1.01c3.16-0.67,6.04-1.84,8.64-3.5
			c2.59-1.66,5.08-3.81,7.47-6.46c2.38-2.65,4.85-6.04,7.39-10.19c2.54-4.15,5.99-10.48,10.35-18.99h15.1l-13.7,53.85H434.88
			l1.71-7.63c3.94-0.62,6.9-1.63,8.87-3.04c1.97-1.4,3.63-3.35,4.98-5.84c1.35-2.49,2.59-5.52,3.74-9.1
			c1.14-3.58,2.85-10.5,5.14-20.78l26.46-119.84c2.28-10.37,3.42-18.73,3.42-25.06c0-4.88-1.24-8.27-3.73-10.19
			c-2.49-1.92-6.33-3.04-11.52-3.35l1.71-7.63H618.83z"/>
		<path class="st1" d="M218.64,522.37c25.07,0,44.57,5.9,58.49,17.69c13.91,11.79,20.88,27.47,20.88,47.01
			c0,21.46-6.91,37.82-20.72,49.08c-13.81,11.27-33.26,16.89-58.33,16.89l-5.1,2.87h-41.75v76.81h-53.87V522.37H218.64z
			 M210.99,617.04c10.62,0,18.59-2.12,23.9-6.38c5.31-4.25,7.97-11.05,7.97-20.4c0-9.13-2.66-15.83-7.97-20.08
			c-5.31-4.25-13.28-6.38-23.9-6.38h-38.89v53.23H210.99z M243.19,628.51l67.25,104.23h-60.56l-53.87-92.11L243.19,628.51z"/>
		<path class="st1" d="M337.85,732.74V522.37h163.83v42.39H392.67v42.71h86.7v39.84h-86.7v43.03h113.15v42.39H337.85z"/>
		<path class="st1" d="M621.2,519.18c19.55,0,36.81,3.03,51.79,9.08c14.98,6.06,27.99,14.93,39.04,26.61l-26.46,35.38
			c-9.14-9.56-18.96-16.73-29.48-21.51c-10.52-4.78-22.47-7.17-35.86-7.17c-7.86,0-14.24,0.85-19.12,2.55
			c-4.89,1.7-8.4,4.04-10.52,7.01c-2.13,2.98-3.19,6.38-3.19,10.2c0,4.46,2.07,8.24,6.22,11.32c4.14,3.08,10.89,5.69,20.24,7.81
			l35.38,7.97c21.04,4.89,36.44,12.01,46.22,21.35c9.77,9.35,14.66,21.78,14.66,37.29c0,14.88-3.83,27.47-11.47,37.77
			c-7.65,10.31-18.17,18.06-31.55,23.27c-13.39,5.21-28.69,7.81-45.9,7.81c-14.02,0-27.41-1.54-40.16-4.62
			c-12.75-3.08-24.22-7.49-34.42-13.23s-18.8-12.32-25.82-19.76l26.46-36.65c5.31,6.17,11.84,11.63,19.6,16.41
			c7.75,4.78,16.26,8.56,25.5,11.32c9.24,2.76,18.65,4.14,28.21,4.14c7.44,0,13.65-0.74,18.65-2.23c4.99-1.48,8.66-3.71,11-6.69
			c2.33-2.97,3.51-6.48,3.51-10.52c0-4.46-1.59-8.23-4.78-11.32c-3.19-3.08-9.24-5.68-18.17-7.81l-38.88-8.61
			c-11.9-2.76-22.47-6.42-31.71-11c-9.24-4.57-16.52-10.73-21.83-18.49c-5.31-7.75-7.97-17.48-7.97-29.16
			c0-13.17,3.61-24.91,10.84-35.22c7.22-10.3,17.63-18.43,31.24-24.38C586.03,522.16,602.29,519.18,621.2,519.18z"/>
	</g>
	<g>
		<path class="st2" d="M307.64,831.66c-1.35,5.78-3.66,10.44-6.93,13.97c-3.27,3.53-7.23,6.06-11.88,7.6
			c-4.66,1.54-9.84,2.31-15.54,2.31c-7.81,0-14.55-1.5-20.22-4.5c-5.67-3-10.02-7.36-13.07-13.07c-3.04-5.71-4.56-12.62-4.56-20.72
			s1.52-15.02,4.56-20.72c3.04-5.71,7.4-10.06,13.07-13.07c5.67-3,12.41-4.51,20.22-4.51c5.48,0,10.59,0.77,15.32,2.31
			c4.73,1.54,8.73,3.96,12,7.26c3.27,3.3,5.42,7.62,6.48,12.95l-22.53,8.79c-0.6-4.88-1.82-8.03-3.66-9.46
			c-1.84-1.43-4.15-2.14-6.93-2.14c-2.55,0-4.71,0.66-6.48,1.97c-1.77,1.31-3.08,3.34-3.94,6.08c-0.86,2.74-1.3,6.25-1.3,10.53
			c0,4.21,0.39,7.7,1.18,10.47c0.79,2.78,2.08,4.83,3.89,6.14c1.8,1.31,4.2,1.97,7.21,1.97c2.7,0,4.92-0.81,6.65-2.42
			c1.73-1.61,2.82-4.19,3.27-7.72L307.64,831.66z"/>
		<path class="st2" d="M387.16,854.41h-26.81l-3.38-14.19h-20.05l-3.49,14.19H307.3l24.1-74.34h31.54L387.16,854.41z M340.86,823.88
			h12.28l-6.08-25.79L340.86,823.88z"/>
		<path class="st2" d="M450.68,780.07l-26.02,48.54v25.79h-26.24v-25.79l-26.02-48.54h26.13l7.88,17.01l5.29,13.52l5.29-13.52
			l7.88-17.01H450.68z"/>
		<path class="st2" d="M457.33,854.41v-74.34h61.72v19.26h-35.48v9.24h28.61v17.8h-28.61v8.79h36.83v19.26H457.33z"/>
		<path class="st2" d="M597.22,780.07v19.26h-23.2v55.08h-26.24v-55.08h-23.31v-19.26H597.22z"/>
		<path class="st2" d="M669.41,854.41h-26.81l-3.38-14.19h-20.05l-3.49,14.19h-26.13l24.1-74.34h31.54L669.41,854.41z
			 M623.12,823.88h12.28l-6.08-25.79L623.12,823.88z"/>
		<path class="st2" d="M746.68,780.07v74.34H718.3l-17.8-33.79l-4.05-9.12h-0.22l0.45,15.32v27.6h-22.75v-74.34h28.38l17.8,33.9
			l4.05,9.01h0.23l-0.45-15.32v-27.59H746.68z"/>
		<path class="st2" d="M793.42,778.94c7.88,0,14.64,1.5,20.27,4.51c5.63,3,9.95,7.36,12.95,13.07c3,5.71,4.51,12.62,4.51,20.72
			s-1.5,15.02-4.51,20.72c-3,5.71-7.32,10.06-12.95,13.07c-5.63,3-12.39,4.5-20.27,4.5c-7.81,0-14.55-1.5-20.22-4.5
			c-5.67-3-10.02-7.36-13.07-13.07c-3.04-5.71-4.56-12.62-4.56-20.72s1.52-15.02,4.56-20.72c3.04-5.71,7.39-10.06,13.07-13.07
			C778.87,780.45,785.61,778.94,793.42,778.94z M793.42,798.65c-2.55,0-4.64,0.66-6.25,1.97c-1.62,1.31-2.82,3.32-3.6,6.03
			s-1.18,6.23-1.18,10.59c0,4.28,0.39,7.79,1.18,10.53c0.79,2.74,1.99,4.77,3.6,6.08c1.61,1.31,3.7,1.97,6.25,1.97
			c2.55,0,4.64-0.66,6.25-1.97c1.61-1.31,2.8-3.34,3.55-6.08c0.75-2.74,1.13-6.25,1.13-10.53c0-4.35-0.38-7.88-1.13-10.59
			c-0.75-2.7-1.93-4.71-3.55-6.03C798.06,799.31,795.97,798.65,793.42,798.65z"/>
	</g>
	<g>
		<g>
			<path class="st1" d="M759.02,492.9c-9.73-0.36-19.34-1.24-28.78-3.45c-8.93-2.09-11.91-5.89-12.13-14.95
				c-0.09-3.81,0.03-7.63,0.21-11.44c0.72-15.59,19.83-27.11,33.85-20.39c4.99,2.39,9.78,2.01,14.65-0.32
				c10.95-5.24,29.2,3.37,32.52,15.32c0.34,1.22,0.55,2.48,0.76,3.74c3.48,21.6-1.1,27.64-22.86,29.94
				C771.17,491.98,765.09,492.38,759.02,492.9z"/>
		</g>
		<g>
			<path class="st1" d="M846.64,492.78c-11.3,0.05-20.94-0.56-30.36-2.97c-9.88-2.53-12.46-5.9-12.67-16.07
				c-0.42-20.13,4.28-27.04,21.82-32.32c4.06-1.22,7.72-1.59,11.59,1.02c4.8,3.23,10,2.89,15.24,0.46
				c12.61-5.83,31.49,4.07,33.51,17.82c0.81,5.49,0.68,11.17,0.45,16.74c-0.29,6.84-4.81,10.33-10.95,12.01
				c-2.69,0.74-5.44,1.33-8.19,1.75C859.77,492.33,852.43,493.02,846.64,492.78z"/>
		</g>
		<g>
			<path class="st1" d="M799.96,383.05c-0.65,9.99-1.3,19.98-1.95,29.97c-0.28,4.31-0.45,8.64-0.88,12.94
				c-0.24,2.4,0.22,6.03-3.07,6.1c-3.48,0.08-2.93-3.68-3.08-5.98c-0.92-14.72-1.61-29.45-2.43-44.17
				c-0.95-17.12-3.42-33.81-11.7-49.29c-4.39-8.21-5.1-17.5-5.14-26.73c-0.01-2.13-0.74-4.97,2.64-5.37
				c3.27-0.39,3.5,2.19,3.88,4.49c0.71,4.26,1.57,8.5,2.09,12.79c1.27,10.56,7.88,17.56,16.56,21.99c2.02,1.03,6.76,2.67,11.98-0.91
				c12.08-8.27,13.6-19.99,15.88-32.17c0.45-2.42-0.72-6.61,3.54-6.37c5.1,0.29,2.76,4.77,2.67,7.22
				c-0.37,10.2-1.89,20.15-6.63,29.5c-7.3,14.38-8.97,30.07-9.75,45.91c-0.68,13.71-1.41,27.43-2.32,41.13
				c-0.18,2.73,0.94,7.31-3.25,7.22c-4.04-0.09-2.83-4.72-3.07-7.4c-1.12-12.15-1.88-24.33-2.83-36.5c-0.11-1.45-0.6-2.87-0.91-4.3
				C801.45,383.08,800.7,383.07,799.96,383.05z"/>
		</g>
		<g>
			<path class="st1" d="M713.61,433.27c2,0.37,4.01,0.65,5.98,1.13c3.7,0.9,8.5,1.48,9.57,5.25c1.08,3.8-4.12,4.26-6.42,6.28
				c-4.69,4.12-7.36,9.07-7.25,15.3c0.09,5.25-2.32,7.44-7.46,7.02c-5.31-0.43-10.68-0.43-15.93-1.21c-5.01-0.75-11-1.69-11.52-8
				c-0.61-7.38-1.94-15.45,5.94-20.74c4.59-3.08,9.65-4.35,14.98-5.03l-0.12-0.14c4.15,4.93,8.29,4.61,12.42-0.02L713.61,433.27z"/>
		</g>
		<g>
			<path class="st1" d="M899.35,469.36c-7.33,0.69-11.63-1.45-11.74-9.89c-0.09-6.86-4.42-11.67-10.32-14.98
				c-4.22-2.37-4.3-4.66,0.17-6.8c4.63-2.22,9.26-4.44,14.41-1.35c3.2,1.92,6.31,0.86,9.51-0.23c7.41-2.52,13.51-0.08,18.37,5.59
				c3.58,4.17,4.77,16.91,2.28,21.13c-1.38,2.34-3.58,3.52-6.15,4.11c-2.23,0.5-4.44,1.13-6.69,1.44
				C905.92,468.83,902.63,469.05,899.35,469.36z"/>
		</g>
		<g>
			<path class="st1" d="M861.16,420.04c-0.01,11.05-6.94,19.66-15.94,19.82c-9.25,0.16-16.81-8.96-16.61-20.04
				c0.19-10.85,7.48-19.42,16.5-19.39C854.22,400.46,861.18,408.95,861.16,420.04z"/>
		</g>
		<g>
			<path class="st1" d="M743,420.12c0.03-10.85,7.25-19.67,16.12-19.71c9.4-0.03,16.59,8.76,16.43,20.1
				c-0.16,10.97-7.38,19.46-16.44,19.34C750.19,439.73,742.97,430.89,743,420.12z"/>
		</g>
		<g>
			<path class="st1" d="M701.51,433.27c0.23-3.09-2.63-4.72-3.48-7.36c-2.13-6.66-1.32-12.63,4.21-17.13
				c3.71-3.02,8.15-2.88,11.88,0.17c5.38,4.4,5.91,10.4,3.96,16.55c-0.88,2.78-2.94,5.2-4.47,7.78l0.19-0.16
				c-4.14,0.01-8.28,0.01-12.42,0.02L701.51,433.27z"/>
		</g>
		<g>
			<path class="st1" d="M885.64,420.34c-0.15-7.5,4.35-13.29,10.53-13.56c6.16-0.27,11.25,5.33,11.52,12.69
				c0.28,7.71-4.53,13.75-11.05,13.87C890.35,433.44,885.79,428.06,885.64,420.34z"/>
		</g>
		<g>
			<path class="st1" d="M801.27,311.44c5.56-0.12,10.28,4.83,10.35,10.87c0.06,5.2-5.66,12.53-10.02,12.83
				c-4.36,0.3-9.98-6.61-10.14-12.45C791.29,316.38,795.49,311.56,801.27,311.44z"/>
		</g>
	</g>
</g>
</svg>
