<?xml version="1.0" encoding="utf-8"?>
<!-- Generator: Adobe Illustrator 27.0.1, SVG Export Plug-In . SVG Version: 6.00 Build 0)  -->
<svg version="1.1" id="Capa_1" xmlns="http://www.w3.org/2000/svg" xmlns:xlink="http://www.w3.org/1999/xlink" x="0px" y="0px"
	 viewBox="0 0 454 517" style="enable-background:new 0 0 454 517;" xml:space="preserve">
<style type="text/css">
	.st0{fill:#FFFFFF;}
</style>
<path class="st0" d="M158.41,508.62c-11.07-1.63-22.3-2.53-33.17-5.01C63.68,489.56,15.63,436.09,7.95,373.64
	c-10.25-83.33,46.18-158.5,129.41-172.19c16.11-2.65,32.31-3.03,48.71-0.12c0,27.32,0,54.42,0,82.03
	c-4.15-0.79-8.04-1.71-11.98-2.27c-46.49-6.61-86.44,29.1-84.91,75.85c1.21,36.92,30.94,67.36,68.82,70.48
	c36.14,2.97,70.72-23.3,77.35-59.05c1.15-6.19,1.48-12.6,1.49-18.91c0.14-111.08,0.17-222.15,0.25-333.23
	c0-2.43,0.23-4.86,0.35-7.29c27,0,54,0,81,0c1.77,69.18,53.27,122.1,121.89,125.01c4.21,0.18,4.67,1.85,4.65,5.29
	c-0.1,23.58-0.05,47.17-0.05,70.75c0,1.58,0,3.16,0,5.22c-47.01-0.21-88.53-14.63-126.4-42.69c0,2.61,0,4.33,0,6.04
	c0.17,57.09,0.39,114.17,0.43,171.26c0.01,7.94-0.47,15.94-1.42,23.83c-7.66,63.96-58.18,118.44-121.5,130.99
	c-9.2,1.82-18.6,2.68-27.9,3.99C164.91,508.62,161.66,508.62,158.41,508.62z"/>
</svg>
