<?xml version="1.0" encoding="utf-8"?>
<!-- Generator: Adobe Illustrator 27.0.1, SVG Export Plug-In . SVG Version: 6.00 Build 0)  -->
<svg version="1.1" id="Capa_1" xmlns="http://www.w3.org/2000/svg" xmlns:xlink="http://www.w3.org/1999/xlink" x="0px" y="0px"
	 viewBox="0 0 939 953" style="enable-background:new 0 0 939 953;" xml:space="preserve">
<style type="text/css">
	.st0{fill:#FFFFFF;}
</style>
<g>
	<g>
		<path class="st0" d="M478.2,909.96c-78.55,0-155.6-20.79-223.84-60.25L79.52,909.96l35.93-185.18
			c-56.33-77.2-86.03-168.01-86.03-263.62c0-247.46,201.32-448.78,448.79-448.78C725.68,12.39,927,213.7,927,461.17
			C927,708.63,725.68,909.96,478.2,909.96z M262.43,776.31l13.52,8.47c60.96,38.21,130.9,58.41,202.26,58.41
			c210.65,0,382.02-171.37,382.02-382.03c0-210.64-171.37-382-382.02-382c-210.65,0-382.01,171.37-382.01,382
			c0,85.7,28.08,166.91,81.15,234.82l9.37,11.99l-19.64,101.17L262.43,776.31z"/>
	</g>
	<path class="st0" d="M251.64,288.74c0,0,26.32-46.03,47.79-48.66c21.47-2.64,49.11-2.64,56.56,11.39
		c7.45,14.03,40.77,95.58,40.77,95.58s5.69,14.03-3.08,27.61c-8.76,13.59-28.48,33.32-28.48,33.32s-10.96,14.03,0,28.93
		c10.96,14.9,27.96,42.31,63.14,77.45c35.11,35.15,102.56,60.21,102.56,60.21s9.65,1.31,15.79-4.84
		c6.14-6.13,39.46-47.78,39.46-47.78s10.72-13.8,28.5-5.69c17.74,8.11,94.67,46.46,94.67,46.46s8.99,3.29,8.99,16.87
		c0,13.59-5.5,46.85-16.74,58.09c-11.24,11.25-44.12,45.9-93.51,45.9c-49.41,0-167.04-40.2-229.73-102.87
		c-62.69-62.71-118.37-126.28-131.51-184.14C233.68,338.72,235.43,312.58,251.64,288.74z"/>
</g>
</svg>
